<?xml version="1.0" encoding="UTF-8"?>
<svg version="1.1" xmlns="http://www.w3.org/2000/svg" width="950" height="949">
<path d="M0 0 C1.154839 -0.00350607 2.30967801 -0.00701215 3.49951214 -0.01062447 C6.6918921 -0.01830033 9.88412314 -0.01709975 13.0765037 -0.01206893 C16.55467524 -0.00878953 20.03282288 -0.01709542 23.51098669 -0.02388728 C29.60280096 -0.03417682 35.69458346 -0.03703289 41.78640556 -0.03497505 C50.84552588 -0.03192235 59.90461109 -0.04025503 68.96372458 -0.0507243 C86.08619514 -0.07005941 103.20865372 -0.07569235 120.33113392 -0.07683842 C133.55539916 -0.07775778 146.7796597 -0.08187589 160.00392342 -0.08823967 C163.8116062 -0.09003478 167.619289 -0.09181441 171.42697179 -0.09358943 C172.37359672 -0.09403152 173.32022165 -0.09447362 174.29553219 -0.09492911 C200.92025201 -0.10723647 227.5449702 -0.11513035 254.16969299 -0.11424255 C255.67521498 -0.11419582 255.67521498 -0.11419582 257.21115154 -0.11414814 C262.29812939 -0.11398192 267.38510723 -0.11378384 272.47208507 -0.11357872 C273.48236149 -0.11353883 274.49263791 -0.11349894 275.53352876 -0.11345784 C277.57655401 -0.11337697 279.61957925 -0.11329337 281.66260449 -0.11320706 C313.44486933 -0.1119817 345.22709148 -0.1269924 377.0093441 -0.15435219 C412.72399427 -0.18508458 448.43861639 -0.20228398 484.15328062 -0.20042574 C487.96284954 -0.20027648 491.77241846 -0.20017907 495.58198738 -0.20011711 C496.98898521 -0.20008215 496.98898521 -0.20008215 498.42440724 -0.20004648 C513.50818618 -0.19998498 528.59192801 -0.21274753 543.67569592 -0.22998164 C558.84013748 -0.24694935 574.00452485 -0.24890305 589.16897066 -0.235763 C598.17283458 -0.2283814 607.1765337 -0.23200813 616.18038011 -0.25164768 C622.20217142 -0.26367052 628.22384371 -0.26103108 634.24562962 -0.24670668 C637.67179297 -0.23896302 641.09763805 -0.2373352 644.52377863 -0.25362138 C658.30440999 -0.30639209 671.0491841 -0.23153777 684.19440269 4.25726891 C685.27232035 4.62457827 686.35023801 4.99188764 687.46081984 5.37032759 C708.27721047 12.90406918 726.4707025 30.45662797 736.14703941 50.20111656 C741.25615097 61.43441358 745.31017162 73.66348489 745.32583046 86.09456444 C745.3296716 87.24391409 745.33351275 88.39326374 745.33747029 89.57744217 C745.33660381 90.83053743 745.33573733 92.0836327 745.33484459 93.37470055 C745.33743018 94.72696136 745.34044389 96.07922141 745.34384799 97.43148041 C745.35189869 101.14201736 745.35370649 104.85253494 745.35444546 108.5630796 C745.35629943 112.56737455 745.36384858 116.57165954 745.37058067 120.57594872 C745.3841517 129.33038509 745.39018705 138.08481687 745.39459133 146.83926201 C745.39735633 152.30926676 745.40159421 157.77926974 745.4060955 163.2492733 C745.41828751 178.40401664 745.42858634 193.55875856 745.4319706 208.7135067 C745.43219016 209.68311821 745.43240973 210.65272971 745.43263595 211.65172338 C745.43285423 212.62361624 745.4330725 213.5955091 745.4332974 214.59685326 C745.43374086 216.566178 745.43418742 218.53550275 745.43463707 220.5048275 C745.4348585 221.4816744 745.43507993 222.45852131 745.43530807 223.46496964 C745.43925336 239.28197509 745.45669949 255.0989344 745.47999659 270.91592205 C745.50374062 287.16801978 745.51617387 303.42009439 745.51733851 319.67220974 C745.51825366 328.79182575 745.52396532 337.91138166 745.54215813 347.03098106 C745.55760047 354.79907283 745.56265534 362.56708591 745.55442002 370.33519012 C745.55052785 374.29439647 745.55137245 378.2534446 745.56547737 382.21263123 C745.57830316 385.8462133 745.5769437 389.47951967 745.56488666 393.11310184 C745.56203348 395.03112853 745.57379943 396.94916038 745.58630872 398.8671484 C745.44471589 424.01092568 735.4611215 445.42750492 718.19440269 463.25726891 C717.60659019 463.93015953 717.01877769 464.60305016 716.41315269 465.29633141 C704.01472296 478.94547993 683.77817093 488.20625242 665.44806449 489.44249026 C662.42664593 489.5146639 659.41106808 489.52625679 656.38880539 489.51453781 C654.65654688 489.51979692 654.65654688 489.51979692 652.88929325 489.52516228 C649.69691328 489.53283814 646.50468224 489.53163757 643.31230169 489.52660674 C639.83413015 489.52332735 636.35598251 489.53163323 632.8778187 489.53842509 C626.78600443 489.54871463 620.69422193 489.5515707 614.60239983 489.54951286 C605.54327951 489.54646016 596.4841943 489.55479285 587.42508081 489.56526211 C570.30261025 489.58459723 553.18015167 489.59023016 536.05767147 489.59137623 C522.83340623 489.59229559 509.60914569 489.5964137 496.38488197 489.60277748 C492.57719919 489.60457259 488.76951639 489.60635222 484.9618336 489.60812724 C484.01520867 489.60856933 483.06858374 489.60901143 482.0932732 489.60946692 C455.46855338 489.62177428 428.84383519 489.62966816 402.2191124 489.62878036 C400.71359041 489.62873363 400.71359041 489.62873363 399.17765385 489.62868595 C394.090676 489.62851974 389.00369816 489.62832165 383.91672032 489.62811653 C382.9064439 489.62807664 381.89616748 489.62803675 380.85527663 489.62799565 C378.81225138 489.62791478 376.76922614 489.62783118 374.7262009 489.62774487 C342.94393606 489.62651951 311.16171391 489.64153021 279.37946129 489.66889 C243.66481112 489.69962239 207.950189 489.71682179 172.23552477 489.71496356 C168.42595585 489.7148143 164.61638693 489.71471688 160.80681801 489.71465492 C159.86881945 489.71463161 158.9308209 489.71460831 157.96439814 489.71458429 C142.88061921 489.71452279 127.79687738 489.72728534 112.71310947 489.74451945 C97.54866791 489.76148716 82.38428054 489.76344086 67.21983473 489.75030081 C58.21597081 489.74291921 49.21227168 489.74654594 40.20842528 489.76618549 C34.18663397 489.77820833 28.16496168 489.77556889 22.14317577 489.76124449 C18.71701242 489.75350084 15.29116734 489.75187301 11.86502676 489.7681592 C-16.79252421 489.87789867 -39.50223287 484.63284862 -60.80559731 464.25726891 C-61.82073402 463.35428062 -61.82073402 463.35428062 -62.85637856 462.43305016 C-77.74081447 448.68209834 -88.02350928 426.64902049 -88.9332478 406.41862965 C-88.9344943 405.42907308 -88.9357408 404.43951651 -88.93702507 403.41997337 C-88.94086622 402.27062372 -88.94470736 401.12127407 -88.9486649 399.93709564 C-88.94779842 398.68400038 -88.94693194 397.43090511 -88.9460392 396.13983727 C-88.94862479 394.78757645 -88.9516385 393.4353164 -88.9550426 392.0830574 C-88.9630933 388.37252045 -88.9649011 384.66200287 -88.96564007 380.95145822 C-88.96749404 376.94716326 -88.97504319 372.94287827 -88.98177528 368.9385891 C-88.99534631 360.18415273 -89.00138166 351.42972094 -89.00578594 342.6752758 C-89.00855094 337.20527106 -89.01278882 331.73526807 -89.01729012 326.26526451 C-89.02948212 311.11052117 -89.03978096 295.95577925 -89.04316521 280.80103111 C-89.04338477 279.83141961 -89.04360434 278.8618081 -89.04383056 277.86281443 C-89.04404884 276.89092157 -89.04426711 275.91902871 -89.04449201 274.91768456 C-89.04493547 272.94835981 -89.04538203 270.97903506 -89.04583168 269.00971031 C-89.04616382 267.54443995 -89.04616382 267.54443995 -89.04650268 266.04956818 C-89.05044797 250.23256272 -89.0678941 234.41560341 -89.0911912 218.59861577 C-89.11493523 202.34651803 -89.12736848 186.09444342 -89.12853312 169.84232807 C-89.12944827 160.72271206 -89.13515993 151.60315615 -89.15335274 142.48355675 C-89.16879508 134.71546499 -89.17384995 126.9474519 -89.16561463 119.17934769 C-89.16172246 115.22014134 -89.16256706 111.26109321 -89.17667198 107.30190659 C-89.18949777 103.66832451 -89.18813831 100.03501814 -89.17608127 96.40143597 C-89.17322809 94.48340928 -89.18499404 92.56537743 -89.19750333 90.64738941 C-89.0559105 65.50361213 -79.07231611 44.08703289 -61.80559731 26.25726891 C-61.21778481 25.58437828 -60.62997231 24.91148766 -60.02434731 24.21820641 C-44.97337701 7.64893647 -21.84713203 -0.08471341 0 0 Z M13.74127769 104.21820641 C7.88049601 111.94378226 5.86747928 120.27821681 5.99909019 129.81586266 C6.00110435 130.51650841 6.00311852 131.21715416 6.00519371 131.9390316 C6.01555681 134.52434519 6.04347838 137.10956452 6.06940269 139.69476891 C6.11065269 145.49039391 6.15190269 151.28601891 6.19440269 157.25726891 C24.01440269 157.25726891 41.83440269 157.25726891 60.19440269 157.25726891 C60.52440269 153.62726891 60.85440269 149.99726891 61.19440269 146.25726891 C62.96875029 141.99883468 65.10096816 140.30398617 69.19440269 138.25726891 C72.44481621 137.17379773 74.81330044 137.12607396 78.23387718 137.11682701 C79.49697716 137.11111687 80.76007713 137.10540672 82.06145287 137.09952354 C83.46408643 137.09827818 84.86672011 137.09715309 86.26935387 137.09613609 C87.7444833 137.09150741 89.21961154 137.08648268 90.69473839 137.08109093 C94.70530011 137.06796735 98.71584509 137.06152172 102.72642493 137.05708027 C105.23328867 137.05414868 107.74014784 137.05004364 110.24700928 137.0455761 C118.0937384 137.03189952 125.94045708 137.02223439 133.78719729 137.0183742 C142.83840415 137.01389687 151.88945973 136.99636476 160.9406206 136.96737361 C167.9403267 136.94573363 174.93999032 136.93566864 181.93972951 136.93433309 C186.11843672 136.93328645 190.29700176 136.92740927 194.47567368 136.90951347 C198.40979226 136.89299331 202.34366244 136.89089631 206.27780342 136.89965248 C207.71769121 136.90042083 209.15759257 136.89610692 210.59744644 136.88619423 C226.82433556 136.78107914 226.82433556 136.78107914 233.94440269 142.44476891 C242.56975307 153.22645687 242.14633669 166.03655425 241.19440269 179.25726891 C240.01486887 185.42495181 237.49358494 190.17761194 232.36534977 193.92218304 C224.22986276 198.92533298 214.2240887 200.56624443 205.01935387 202.53778648 C203.62785719 202.84162549 202.23650895 203.14614499 200.84529686 203.45128441 C197.09342632 204.2722639 193.33960256 205.08396091 189.58536887 205.89405465 C185.61567695 206.75248542 181.64798127 207.62004639 177.68007469 208.4866848 C170.14552654 210.13097694 162.60939749 211.76789271 155.07259017 213.40179509 C141.66251845 216.30924164 128.25535931 219.23007923 114.8484953 222.15227622 C110.16892018 223.1719613 105.48872081 224.18871448 100.80798537 225.20305914 C92.28661781 227.05004881 83.76930903 228.91463008 75.25657415 230.80101633 C73.16637879 231.26346916 71.07562097 231.72331646 68.98481178 232.18298531 C65.5614328 232.93717159 62.1411146 233.70408644 58.72258437 234.47994363 C56.8699124 234.8980295 55.01490864 235.30574167 53.15982151 235.71297741 C38.70243333 239.02976131 24.69576566 244.3756473 15.19440269 256.25726891 C6.05651288 271.0264091 5.03390999 286.22137252 4.99127769 303.11273766 C4.98845032 303.87248705 4.98562294 304.63223644 4.98270988 305.41500854 C4.96778243 309.43705776 4.95851273 313.45907172 4.95416832 317.48114586 C4.9486979 321.59834521 4.92468162 325.71521152 4.89619637 329.83230686 C4.87741355 333.03169714 4.87235612 336.23100973 4.87083244 339.43045044 C4.86783976 340.94644869 4.85992849 342.46244672 4.84664726 343.97838974 C4.71485276 360.17951563 6.95655056 374.73942755 18.31940269 387.06976891 C30.10297745 398.1765843 44.97518487 400.42593309 60.49555016 400.37752342 C61.50693944 400.37837785 62.51832871 400.37923227 63.56036615 400.38011259 C66.93514139 400.3817542 70.30986645 400.37626765 73.68463707 400.3707943 C76.10943157 400.37051211 78.53422616 400.37067077 80.95902061 400.3712368 C86.17216536 400.37146421 91.38529885 400.36863547 96.59844017 400.36299896 C104.135669 400.35485495 111.67289179 400.35226577 119.21012455 400.35101097 C131.44023893 400.34882501 143.67034663 400.34217728 155.90045738 400.33270836 C167.77741017 400.32352245 179.65436113 400.31644738 191.53131676 400.31220055 C192.63036544 400.31180646 192.63036544 400.31180646 193.75161713 400.31140441 C197.42753358 400.31009933 201.10345003 400.30883563 204.77936649 400.30759251 C235.25105108 400.29723409 265.72272337 400.27880343 296.19440269 400.25726891 C296.19440269 384.41726891 296.19440269 368.57726891 296.19440269 352.25726891 C289.64290367 352.24268639 283.09140465 352.22810387 276.34137535 352.21307945 C254.70804019 352.16276826 233.07477684 352.09632953 211.44151306 352.02155399 C198.32383211 351.97660715 185.20617823 351.93718983 172.08844566 351.91083336 C160.65373646 351.88784438 149.21911303 351.85443611 137.78447187 351.80856735 C131.73110649 351.78464746 125.677826 351.76591052 119.62441444 351.759655 C113.92317514 351.75359868 108.22215303 351.73357859 102.52099419 351.70299339 C100.43211056 351.69422203 98.34319855 351.69048871 96.25429726 351.69226074 C93.39363957 351.6939208 90.53363826 351.67715183 87.67307091 351.65599632 C86.85397259 351.6608439 86.03487428 351.66569147 85.1909548 351.67068595 C78.25403642 351.58650779 70.80443155 350.73997928 65.63190269 345.81976891 C63.5863737 342.17339113 63.0715458 339.08307565 63.03326988 334.93524742 C63.02366234 334.09079567 63.01405479 333.24634392 63.00415611 332.37630272 C62.99990623 331.47206062 62.99565636 330.56781853 62.99127769 329.63617516 C62.98557762 328.69926338 62.97987755 327.76235161 62.97400475 326.79704857 C62.9645696 324.81757291 62.95802667 322.83808165 62.95416832 320.85858727 C62.9444494 317.83430177 62.91340658 314.81069227 62.88190269 311.78656578 C62.87537348 309.8614396 62.87012269 307.93630857 62.86627769 306.01117516 C62.85393089 305.10895729 62.84158409 304.20673943 62.82886314 303.27718163 C62.85902537 294.75842781 62.85902537 294.75842781 66.19440269 291.25726891 C72.56105486 288.53969082 79.08008887 286.95087102 85.80866051 285.38495445 C87.52390167 284.9791188 87.52390167 284.9791188 89.27379417 284.56508446 C92.40652989 283.82497743 95.54032237 283.08956502 98.67465496 282.35625625 C102.02536462 281.57114335 105.37465668 280.78002589 108.72412682 279.989645 C115.12895934 278.47925232 121.53506655 276.97433885 127.94163299 275.47131997 C134.99180122 273.81700624 142.04043354 272.1561993 149.08897305 270.49496245 C153.25455216 269.51345252 157.42041622 268.53315266 161.58625555 267.55274785 C165.0595442 266.73523062 168.53268309 265.91708673 172.00551414 265.09762764 C186.70609388 261.62902101 201.41215856 258.19285707 216.14789629 254.87640369 C220.28505895 253.94338139 224.42016118 253.00125918 228.55525851 252.05913121 C231.80703792 251.31936887 235.0602813 250.5887971 238.31690788 249.87049484 C265.90795536 243.86024252 265.90795536 243.86024252 286.99909019 225.84711266 C295.73142839 212.1403828 297.50630568 197.53573842 297.49518394 181.60492516 C297.49908419 180.21449725 297.50342152 178.82407052 297.50816917 177.43364525 C297.51557707 174.53667886 297.51537964 171.63983446 297.51007652 168.74286461 C297.50428354 165.06391513 297.52123499 161.3854694 297.5444212 157.70660305 C297.55928046 154.8400801 297.56001394 151.97367517 297.55691147 149.10712051 C297.55766157 147.10222077 297.57142698 145.09733909 297.58559227 143.09248924 C297.5063897 127.26266816 293.6657791 114.18663547 282.64362144 102.58148766 C275.66428483 95.95835323 268.39402653 91.99070346 259.19440269 89.25726891 C258.65218449 89.08018017 258.10996628 88.90309143 257.55131721 88.72063637 C254.06046387 88.03433746 250.58188511 88.11286572 247.03845787 88.11682701 C245.79457255 88.11237033 245.79457255 88.11237033 244.52555823 88.10782361 C241.7423113 88.09914116 238.95910741 88.09762869 236.17584801 88.09613609 C234.1815386 88.09150731 232.18723008 88.08648257 230.19292259 88.08109093 C224.76870475 88.0679639 219.3444993 88.06152045 213.92026806 88.05708027 C210.52704324 88.05414781 207.1338218 88.05004249 203.74059868 88.0455761 C193.11204998 88.03189547 182.48350899 88.02223366 171.8549521 88.0183742 C159.60999375 88.01390298 147.36514755 87.99640101 135.12022328 87.96737361 C125.64311092 87.94569284 116.16602995 87.93566639 106.68889308 87.93433309 C101.0355471 87.9332889 95.38230647 87.92746475 89.72898674 87.90951347 C84.40035166 87.89292381 79.07189983 87.89092973 73.74324799 87.89965248 C71.79876588 87.90041727 69.85427349 87.89615481 67.90981674 87.88619423 C48.53125083 87.79283763 27.68618465 88.78345896 13.74127769 104.21820641 Z M355.19440269 104.25726891 C345.38322137 116.68605789 343.02966035 130.74434134 343.07414818 146.12151146 C343.07329375 147.20555026 343.07243933 148.28958905 343.07155901 149.40647751 C343.06991398 153.03310912 343.07540962 156.65969431 343.0808773 160.28632164 C343.08115941 162.88830629 343.08100098 165.49029102 343.0804348 168.09227562 C343.07991121 173.69122293 343.08304074 179.29015856 343.08867264 184.88910294 C343.09681004 192.98417134 343.09940516 201.07923411 343.10066063 209.17430616 C343.10284762 222.30897858 343.10949817 235.44364478 343.11896324 248.57831383 C343.12814647 261.33514945 343.13522285 274.09198338 343.13947105 286.84882164 C343.13973378 287.63554941 343.1399965 288.42227718 343.14026719 289.23284518 C343.14157225 293.17974554 343.14283595 297.12664591 343.14407909 301.07354629 C343.15444073 333.80145854 343.17232527 366.52936245 343.19440269 399.25726891 C358.70440269 399.25726891 374.21440269 399.25726891 390.19440269 399.25726891 C390.21627647 388.3080526 390.21627647 388.3080526 390.23859215 377.13764 C390.28734722 353.78356832 390.35075564 330.42956005 390.42338898 307.07555147 C390.43465717 303.44813601 390.44579562 299.82072017 390.45685387 296.19330406 C390.45905755 295.47114915 390.46126123 294.74899424 390.4635317 294.00495584 C390.49890658 282.31107408 390.52376963 270.61719238 390.54474971 258.92327695 C390.56651025 246.92473346 390.59956306 234.92625943 390.64310426 222.92777503 C390.66723733 216.18819544 390.68614594 209.44868501 390.6920166 202.70906258 C390.69805182 196.36763989 390.71799529 190.02641418 390.74867821 183.68506432 C390.75748349 181.35584059 390.76117589 179.02659115 390.75941086 176.69735146 C390.75776314 173.52002267 390.77441521 170.34329792 390.79567528 167.16605186 C390.7908277 166.24191943 390.78598013 165.31778699 390.78098565 164.36565053 C390.8376121 159.24628051 391.34757661 155.69274831 394.19440269 151.25726891 C396.09674644 149.61273766 396.09674644 149.61273766 398.13190269 148.44476891 C398.80092613 148.04644859 399.46994957 147.64812828 400.15924644 147.23773766 C406.20307671 144.32602672 412.8883872 145.03501924 419.44440269 145.00726891 C420.64709801 144.98664391 421.84979332 144.96601891 423.08893394 144.94476891 C431.15531903 144.90935119 437.42830105 145.26150624 443.94440269 150.44476891 C448.57114633 156.22819845 450.76561286 162.31177921 452.04694176 169.53388023 C452.19771235 170.32704832 452.34848293 171.12021641 452.50382233 171.93741989 C453.00092965 174.56933751 453.48059861 177.20410963 453.96002769 179.83930016 C454.31338523 181.73281205 454.667709 183.62614385 455.02292442 185.51930809 C455.97935722 190.63533361 456.92000377 195.75414789 457.85751152 200.87367058 C458.64247774 205.14844812 459.43712939 209.42140251 460.23160172 213.69442177 C464.54346411 236.89795426 468.72888262 260.1228969 472.79596519 283.37055016 C473.06992371 284.93540248 473.06992371 284.93540248 473.34941673 286.53186798 C475.1074578 296.57883792 476.85731918 306.62710436 478.57746124 316.68063831 C479.21063294 320.37501167 479.84946619 324.06839375 480.48918343 327.76163864 C480.78109328 329.45617304 481.07024708 331.15118519 481.35625648 332.84672546 C484.91975108 353.97082849 489.47999919 375.40522525 507.19440269 389.25726891 C520.51937831 398.09734313 536.05773498 399.88884473 551.61237144 399.78851891 C553.12778025 399.79122585 554.64318734 399.79511812 556.15859032 399.80011559 C559.30408145 399.80594904 562.44911237 399.79764685 565.59454918 399.77875328 C569.58843298 399.75590719 573.58124429 399.76916106 577.57508945 399.79304314 C580.69389741 399.80761941 583.8124583 399.80284264 586.93127441 399.79253197 C588.40259815 399.78990025 589.87394576 399.79300616 591.34524155 399.80245018 C607.96176762 399.88580288 622.57925859 395.72956201 634.94440269 384.25726891 C650.97697013 367.33145843 650.63587186 346.51782233 650.53497887 324.61713219 C650.53413155 322.0338193 650.53460978 319.45050569 650.53630638 316.86719322 C650.53787063 311.32998962 650.52855096 305.79289302 650.51159286 300.25571632 C650.48709123 292.25015284 650.47938625 284.24464049 650.47562889 276.23904358 C650.4690818 263.24687981 650.44916823 250.25477293 650.42072105 237.26264 C650.39313517 224.6506637 650.37192383 212.03870292 650.35919762 199.4267025 C650.35840945 198.64778779 650.35762128 197.86887307 650.35680922 197.06635489 C650.35289378 193.1583172 650.34910273 189.2502794 650.34537351 185.34224153 C650.31433193 152.98054096 650.26071159 120.61891695 650.19440269 88.25726891 C634.68440269 88.25726891 619.17440269 88.25726891 603.19440269 88.25726891 C603.03998688 102.08060796 603.03998688 102.08060796 602.89044762 115.90399742 C602.82370329 122.17906864 602.75638557 128.45413053 602.68601036 134.72916222 C602.38046012 162.0686626 602.16357804 189.40646907 602.0716818 216.7474196 C602.052387 222.42653951 602.02963367 228.1056372 602.00462914 233.78473473 C602.00111708 234.58645253 601.99760503 235.38817033 601.99398655 236.21418262 C601.97975482 239.44967614 601.96543101 242.68516916 601.95070779 245.9206605 C601.90694145 255.56670606 601.87549457 265.21261141 601.86360741 274.85875052 C601.85502819 280.99187686 601.83207784 287.12484826 601.79841709 293.25788766 C601.7793142 296.83608838 601.76695163 300.41399752 601.77207375 303.99225235 C601.77758594 307.91355998 601.75231432 311.83434041 601.72443199 315.75555992 C601.7310312 316.89724695 601.73763041 318.03893398 601.74442959 319.21521759 C601.65167654 327.14231629 600.50980863 333.85461544 594.81940269 339.69476891 C587.50818486 344.04668428 580.14102654 343.62403038 571.88190269 343.63226891 C570.6012191 343.65676109 569.32053551 343.68125328 568.00104332 343.70648766 C559.82261819 343.7317427 552.86481806 343.21394169 546.43390465 337.76581383 C538.74650572 329.69015069 537.9702659 317.70479479 536.03424644 307.19476891 C535.72954895 305.56655191 535.42430648 303.93843683 535.11856651 302.31041527 C534.46109943 298.80261593 533.80772339 295.29408751 533.15744591 291.78494835 C532.12054137 286.1901441 531.07321337 280.59731793 530.02521324 275.00458336 C526.48933348 256.11346821 522.99727184 237.21445192 519.53758812 218.30924034 C518.12307852 210.57979568 516.70281971 202.85140945 515.28180981 195.1231575 C514.10730361 188.73079879 512.94244254 182.33677634 511.78478432 175.94134617 C511.05536148 171.92306029 510.31765669 167.90632471 509.57793617 163.8899231 C509.23821396 162.03562211 508.90190636 160.18069138 508.56947517 158.32506943 C504.6262374 136.33503678 499.3199953 111.44687032 480.31940269 97.38226891 C467.71059547 89.17592424 454.85138448 87.94105687 440.17096519 87.95648766 C438.61834157 87.95259185 437.065719 87.94825539 435.51309776 87.94350243 C432.27043759 87.93607434 429.02788636 87.93630648 425.78522301 87.94159508 C421.65773733 87.94738398 417.53070125 87.93045626 413.40328979 87.9072504 C410.19967667 87.89242119 406.99616953 87.89165378 403.79252815 87.89476013 C402.27209521 87.89425148 400.75165561 87.88910089 399.23125648 87.87894821 C382.14009286 87.77880833 367.14441503 91.26329638 355.19440269 104.25726891 Z " fill="#005597" transform="translate(150.80559730529785,242.74273109436035)"/>
<path d="M0 0 C1.154839 -0.00350607 2.30967801 -0.00701215 3.49951214 -0.01062447 C6.6918921 -0.01830033 9.88412314 -0.01709975 13.0765037 -0.01206893 C16.55467524 -0.00878953 20.03282288 -0.01709542 23.51098669 -0.02388728 C29.60280096 -0.03417682 35.69458346 -0.03703289 41.78640556 -0.03497505 C50.84552588 -0.03192235 59.90461109 -0.04025503 68.96372458 -0.0507243 C86.08619514 -0.07005941 103.20865372 -0.07569235 120.33113392 -0.07683842 C133.55539916 -0.07775778 146.7796597 -0.08187589 160.00392342 -0.08823967 C163.8116062 -0.09003478 167.619289 -0.09181441 171.42697179 -0.09358943 C172.37359672 -0.09403152 173.32022165 -0.09447362 174.29553219 -0.09492911 C200.92025201 -0.10723647 227.5449702 -0.11513035 254.16969299 -0.11424255 C255.67521498 -0.11419582 255.67521498 -0.11419582 257.21115154 -0.11414814 C262.29812939 -0.11398192 267.38510723 -0.11378384 272.47208507 -0.11357872 C273.48236149 -0.11353883 274.49263791 -0.11349894 275.53352876 -0.11345784 C277.57655401 -0.11337697 279.61957925 -0.11329337 281.66260449 -0.11320706 C313.44486933 -0.1119817 345.22709148 -0.1269924 377.0093441 -0.15435219 C412.72399427 -0.18508458 448.43861639 -0.20228398 484.15328062 -0.20042574 C487.96284954 -0.20027648 491.77241846 -0.20017907 495.58198738 -0.20011711 C496.98898521 -0.20008215 496.98898521 -0.20008215 498.42440724 -0.20004648 C513.50818618 -0.19998498 528.59192801 -0.21274753 543.67569592 -0.22998164 C558.84013748 -0.24694935 574.00452485 -0.24890305 589.16897066 -0.235763 C598.17283458 -0.2283814 607.1765337 -0.23200813 616.18038011 -0.25164768 C622.20217142 -0.26367052 628.22384371 -0.26103108 634.24562962 -0.24670668 C637.67179297 -0.23896302 641.09763805 -0.2373352 644.52377863 -0.25362138 C658.30440999 -0.30639209 671.0491841 -0.23153777 684.19440269 4.25726891 C685.27232035 4.62457827 686.35023801 4.99188764 687.46081984 5.37032759 C708.27721047 12.90406918 726.4707025 30.45662797 736.14703941 50.20111656 C741.25615097 61.43441358 745.31017162 73.66348489 745.32583046 86.09456444 C745.3296716 87.24391409 745.33351275 88.39326374 745.33747029 89.57744217 C745.33660381 90.83053743 745.33573733 92.0836327 745.33484459 93.37470055 C745.33743018 94.72696136 745.34044389 96.07922141 745.34384799 97.43148041 C745.35189869 101.14201736 745.35370649 104.85253494 745.35444546 108.5630796 C745.35629943 112.56737455 745.36384858 116.57165954 745.37058067 120.57594872 C745.3841517 129.33038509 745.39018705 138.08481687 745.39459133 146.83926201 C745.39735633 152.30926676 745.40159421 157.77926974 745.4060955 163.2492733 C745.41828751 178.40401664 745.42858634 193.55875856 745.4319706 208.7135067 C745.43219016 209.68311821 745.43240973 210.65272971 745.43263595 211.65172338 C745.43285423 212.62361624 745.4330725 213.5955091 745.4332974 214.59685326 C745.43374086 216.566178 745.43418742 218.53550275 745.43463707 220.5048275 C745.4348585 221.4816744 745.43507993 222.45852131 745.43530807 223.46496964 C745.43925336 239.28197509 745.45669949 255.0989344 745.47999659 270.91592205 C745.50374062 287.16801978 745.51617387 303.42009439 745.51733851 319.67220974 C745.51825366 328.79182575 745.52396532 337.91138166 745.54215813 347.03098106 C745.55760047 354.79907283 745.56265534 362.56708591 745.55442002 370.33519012 C745.55052785 374.29439647 745.55137245 378.2534446 745.56547737 382.21263123 C745.57830316 385.8462133 745.5769437 389.47951967 745.56488666 393.11310184 C745.56203348 395.03112853 745.57379943 396.94916038 745.58630872 398.8671484 C745.44471589 424.01092568 735.4611215 445.42750492 718.19440269 463.25726891 C717.60659019 463.93015953 717.01877769 464.60305016 716.41315269 465.29633141 C704.01472296 478.94547993 683.77817093 488.20625242 665.44806449 489.44249026 C662.42664593 489.5146639 659.41106808 489.52625679 656.38880539 489.51453781 C654.65654688 489.51979692 654.65654688 489.51979692 652.88929325 489.52516228 C649.69691328 489.53283814 646.50468224 489.53163757 643.31230169 489.52660674 C639.83413015 489.52332735 636.35598251 489.53163323 632.8778187 489.53842509 C626.78600443 489.54871463 620.69422193 489.5515707 614.60239983 489.54951286 C605.54327951 489.54646016 596.4841943 489.55479285 587.42508081 489.56526211 C570.30261025 489.58459723 553.18015167 489.59023016 536.05767147 489.59137623 C522.83340623 489.59229559 509.60914569 489.5964137 496.38488197 489.60277748 C492.57719919 489.60457259 488.76951639 489.60635222 484.9618336 489.60812724 C484.01520867 489.60856933 483.06858374 489.60901143 482.0932732 489.60946692 C455.46855338 489.62177428 428.84383519 489.62966816 402.2191124 489.62878036 C400.71359041 489.62873363 400.71359041 489.62873363 399.17765385 489.62868595 C394.090676 489.62851974 389.00369816 489.62832165 383.91672032 489.62811653 C382.9064439 489.62807664 381.89616748 489.62803675 380.85527663 489.62799565 C378.81225138 489.62791478 376.76922614 489.62783118 374.7262009 489.62774487 C342.94393606 489.62651951 311.16171391 489.64153021 279.37946129 489.66889 C243.66481112 489.69962239 207.950189 489.71682179 172.23552477 489.71496356 C168.42595585 489.7148143 164.61638693 489.71471688 160.80681801 489.71465492 C159.86881945 489.71463161 158.9308209 489.71460831 157.96439814 489.71458429 C142.88061921 489.71452279 127.79687738 489.72728534 112.71310947 489.74451945 C97.54866791 489.76148716 82.38428054 489.76344086 67.21983473 489.75030081 C58.21597081 489.74291921 49.21227168 489.74654594 40.20842528 489.76618549 C34.18663397 489.77820833 28.16496168 489.77556889 22.14317577 489.76124449 C18.71701242 489.75350084 15.29116734 489.75187301 11.86502676 489.7681592 C-16.79252421 489.87789867 -39.50223287 484.63284862 -60.80559731 464.25726891 C-61.82073402 463.35428062 -61.82073402 463.35428062 -62.85637856 462.43305016 C-77.74081447 448.68209834 -88.02350928 426.64902049 -88.9332478 406.41862965 C-88.9344943 405.42907308 -88.9357408 404.43951651 -88.93702507 403.41997337 C-88.94086622 402.27062372 -88.94470736 401.12127407 -88.9486649 399.93709564 C-88.94779842 398.68400038 -88.94693194 397.43090511 -88.9460392 396.13983727 C-88.94862479 394.78757645 -88.9516385 393.4353164 -88.9550426 392.0830574 C-88.9630933 388.37252045 -88.9649011 384.66200287 -88.96564007 380.95145822 C-88.96749404 376.94716326 -88.97504319 372.94287827 -88.98177528 368.9385891 C-88.99534631 360.18415273 -89.00138166 351.42972094 -89.00578594 342.6752758 C-89.00855094 337.20527106 -89.01278882 331.73526807 -89.01729012 326.26526451 C-89.02948212 311.11052117 -89.03978096 295.95577925 -89.04316521 280.80103111 C-89.04338477 279.83141961 -89.04360434 278.8618081 -89.04383056 277.86281443 C-89.04404884 276.89092157 -89.04426711 275.91902871 -89.04449201 274.91768456 C-89.04493547 272.94835981 -89.04538203 270.97903506 -89.04583168 269.00971031 C-89.04616382 267.54443995 -89.04616382 267.54443995 -89.04650268 266.04956818 C-89.05044797 250.23256272 -89.0678941 234.41560341 -89.0911912 218.59861577 C-89.11493523 202.34651803 -89.12736848 186.09444342 -89.12853312 169.84232807 C-89.12944827 160.72271206 -89.13515993 151.60315615 -89.15335274 142.48355675 C-89.16879508 134.71546499 -89.17384995 126.9474519 -89.16561463 119.17934769 C-89.16172246 115.22014134 -89.16256706 111.26109321 -89.17667198 107.30190659 C-89.18949777 103.66832451 -89.18813831 100.03501814 -89.17608127 96.40143597 C-89.17322809 94.48340928 -89.18499404 92.56537743 -89.19750333 90.64738941 C-89.0559105 65.50361213 -79.07231611 44.08703289 -61.80559731 26.25726891 C-61.21778481 25.58437828 -60.62997231 24.91148766 -60.02434731 24.21820641 C-44.97337701 7.64893647 -21.84713203 -0.08471341 0 0 Z M-25.80559731 5.25726891 C-26.90409657 5.6559186 -28.00259584 6.0545683 -29.13438296 6.4652983 C-52.66458445 15.36174099 -70.79424836 34.47662208 -81.11809731 57.06976891 C-88.01086486 74.84051898 -88.39281596 91.80229113 -88.32849598 110.62673831 C-88.31935434 114.59274573 -88.33345984 118.55868568 -88.34441566 122.52467918 C-88.36210932 130.27186137 -88.35840204 138.01888768 -88.3467651 145.76607573 C-88.33769475 152.06797785 -88.33652227 158.3698366 -88.34086037 164.67174339 C-88.3414733 165.5720749 -88.34208623 166.47240641 -88.34271774 167.40002069 C-88.34399677 169.22959619 -88.34529362 171.05917168 -88.3466081 172.88874716 C-88.35798708 190.00458377 -88.34494244 207.12033438 -88.32340664 224.23615688 C-88.3055381 238.89053542 -88.30864297 253.54478718 -88.32708168 268.19916344 C-88.34853594 285.25792477 -88.3568887 302.31661091 -88.34463263 319.37538385 C-88.34335856 321.19785403 -88.34210108 323.02032422 -88.34086037 324.84279442 C-88.34024326 325.73925158 -88.33962616 326.63570874 -88.33899036 327.55933127 C-88.3355511 333.8463729 -88.34133492 340.13336644 -88.35077858 346.42040062 C-88.36205074 354.09265826 -88.35884971 361.76475242 -88.3376556 369.43699157 C-88.32721483 373.34402125 -88.32290256 377.25077934 -88.33625221 381.1578064 C-88.39682691 400.49802617 -88.06257781 418.24905676 -79.24309731 435.94476891 C-78.81472572 436.82342613 -78.38635414 437.70208336 -77.9450016 438.60736656 C-73.85883427 446.68513796 -68.82206519 453.52967884 -62.80559731 460.25726891 C-61.91807777 461.29174156 -61.91807777 461.29174156 -61.01262856 462.34711266 C-47.23537186 477.34901439 -24.96439214 487.57471193 -4.74021542 488.71754956 C2.47084296 488.96289522 9.68057786 488.92479068 16.89470482 488.89218712 C19.6850827 488.89518592 22.47542155 488.90569829 25.26578146 488.91582334 C31.3073166 488.93378106 37.34862786 488.93339667 43.39017296 488.92058754 C52.37451599 488.9015914 61.35867189 488.91138698 70.34301387 488.92662908 C86.39387169 488.95289802 102.44462974 488.95069966 118.49549696 488.93623451 C132.54280789 488.92363775 146.59008234 488.92038205 160.63739777 488.92634773 C162.03716138 488.92692062 162.03716138 488.92692062 163.46520304 488.92750508 C167.2536422 488.92906187 171.04208135 488.93065389 174.83052048 488.9323039 C210.3424297 488.94758623 245.85427552 488.93375194 281.36617495 488.90681942 C312.88797168 488.88309475 344.4096674 488.88521435 375.93146324 488.90912437 C411.37849446 488.93592216 446.82546969 488.9465003 482.27250963 488.93106306 C486.0542037 488.92945957 489.83589777 488.92789536 493.61759186 488.92634773 C495.01422938 488.92575465 495.01422938 488.92575465 496.4390818 488.92514959 C510.4738241 488.91947219 524.50852581 488.92609503 538.54326248 488.9387455 C554.50884907 488.95306497 570.47432062 488.94941847 586.43989294 488.92234178 C595.36542912 488.90770219 604.29071594 488.90664094 613.21624544 488.92557265 C619.18938935 488.93684036 625.16233467 488.92970703 631.13544931 488.90804881 C634.53137551 488.89623335 637.92640775 488.89471707 641.32237863 488.91007872 C660.49490771 488.99011856 678.01332502 487.5729831 695.19440269 478.25726891 C696.02971519 477.80609703 696.86502769 477.35492516 697.72565269 476.89008141 C719.83857594 464.26387523 735.66037016 442.75927156 742.36517906 418.2527523 C745.46791018 405.40945819 744.76215427 392.01484123 744.71730137 378.8877995 C744.70815972 374.92179208 744.72226523 370.95585213 744.73322105 366.98985863 C744.75091471 359.24267644 744.74720743 351.49565013 744.73557049 343.74846208 C744.72650014 337.44655996 744.72532766 331.14470121 744.72966576 324.84279442 C744.73058515 323.49229716 744.73058515 323.49229716 744.73152313 322.11451712 C744.73280216 320.28494162 744.73409901 318.45536613 744.73541349 316.62579066 C744.74679247 299.50995405 744.73374783 282.39420343 744.71221203 265.27838093 C744.69434349 250.62400239 744.69744836 235.96975063 744.71588707 221.31537437 C744.73734133 204.25661305 744.74569409 187.1979269 744.73343801 170.13915396 C744.73216395 168.31668378 744.73090647 166.49421359 744.72966576 164.67174339 C744.72904865 163.77528623 744.72843155 162.87882907 744.72779575 161.95520654 C744.72435649 155.66816491 744.73014031 149.38117137 744.73958397 143.09413719 C744.75085613 135.42187955 744.7476551 127.74978539 744.72646099 120.07754624 C744.71602022 116.17051657 744.71170795 112.26375847 744.7250576 108.35673141 C744.87592911 86.00712529 744.87592911 86.00712529 740.19440269 64.25726891 C739.91947739 63.41386703 739.64455208 62.57046516 739.3612957 61.70150566 C731.21355825 39.04872713 714.18743002 20.8566354 693.00690269 9.88226891 C679.92738638 3.74148804 667.77964714 0.94348611 653.32543373 1 C652.17589478 0.99649393 651.02635583 0.99298785 649.84198236 0.98937553 C645.99759477 0.98008622 642.15335948 0.98497856 638.30896568 0.98984337 C635.52179339 0.98720842 632.73462887 0.98158347 629.94746089 0.97611272 C623.89137848 0.96582909 617.83532803 0.96296608 611.77923775 0.96502495 C602.77331961 0.96807916 593.76743675 0.95974169 584.76152549 0.9492757 C567.73986744 0.92994668 550.71822146 0.9243079 533.69655374 0.92316158 C520.55096515 0.92224208 507.40538129 0.91812326 494.25979424 0.91176033 C490.47426502 0.90996521 486.68873581 0.90818559 482.90320659 0.90641057 C481.96208461 0.90596848 481.02096263 0.90552638 480.0513218 0.90507089 C453.58413984 0.8927648 427.11695951 0.88486953 400.64977455 0.88575745 C399.15336093 0.88580418 399.15336093 0.88580418 397.62671672 0.88585186 C392.57054794 0.88601808 387.51437916 0.88621616 382.45821038 0.88642128 C381.45405686 0.88646117 380.44990335 0.88650106 379.41532094 0.88654216 C377.38467878 0.88662303 375.35403663 0.88670663 373.32339447 0.88679294 C341.72894652 0.88801849 310.13454149 0.87300364 278.54010582 0.84564781 C243.0349439 0.81491849 207.52981018 0.7977158 172.02463412 0.79957426 C168.23784749 0.79972352 164.45106085 0.79982093 160.66427422 0.79988289 C159.2656939 0.79991785 159.2656939 0.79991785 157.83885944 0.79995352 C142.84327203 0.80001503 127.84772193 0.78725087 112.85214561 0.77001836 C97.7785801 0.75305461 82.7050691 0.75109389 67.63149932 0.764237 C58.6807425 0.77162095 49.73015143 0.7679848 40.77941221 0.74835232 C34.79433239 0.73633569 28.80937236 0.73896204 22.82429799 0.75329332 C19.41822636 0.7610423 16.0127354 0.76042173 12.60664549 0.74637862 C-6.95197641 0.63647763 -6.95197641 0.63647763 -25.80559731 5.25726891 Z " fill="#FEFEFE" transform="translate(150.80559730529785,242.74273109436035)"/>
<path d="M0 0 C0.76521469 -0.00992981 1.53042938 -0.01985962 2.3188324 -0.03009033 C4.83905725 -0.05918265 7.35902963 -0.07291807 9.87939453 -0.08398438 C10.74755924 -0.08963913 11.61572395 -0.09529388 12.51019669 -0.10112 C17.11276706 -0.13105797 21.71521303 -0.14954076 26.31787109 -0.15820312 C31.02933134 -0.16911092 35.73961747 -0.21704461 40.4507122 -0.27414703 C44.10919281 -0.31176467 47.76740223 -0.32183042 51.42605972 -0.32487488 C53.16012044 -0.33085648 54.89418062 -0.34666615 56.62804794 -0.37324524 C72.16911205 -0.59430093 86.54433377 2.07927787 98.13720703 13.32226562 C98.80880859 13.94359375 99.48041016 14.56492187 100.17236328 15.20507812 C109.96879026 25.13363418 115.1355374 38.94441727 118.13720703 52.32226562 C118.33942871 53.22074219 118.54165039 54.11921875 118.75 55.04492188 C121.1156695 65.71042373 123.37883201 76.37054426 124.68017578 87.22460938 C125.03281638 89.61472899 125.46728904 91.88700833 126.00439453 94.23632812 C127.55708743 101.03816145 128.79507719 107.90257241 130.07470703 114.75976562 C130.20793365 115.47025055 130.34116028 116.18073547 130.47842407 116.91275024 C132.14510531 125.80476456 133.73800863 134.70286184 135.16430664 143.63696289 C135.82674799 147.70666761 136.65745156 151.69282917 137.63720703 155.69726562 C139.15734761 161.9599281 140.09633287 168.26139439 140.95947266 174.64208984 C141.80244365 180.68707922 143.03130817 186.60258632 144.33886719 192.56323242 C145.15771264 196.41881757 145.89699476 200.28453878 146.60205078 204.16210938 C146.72331329 204.82554855 146.84457581 205.48898773 146.96951294 206.17253113 C147.462673 208.87691452 147.9536462 211.58164539 148.43676758 214.2878418 C151.01848909 235.10303183 151.01848909 235.10303183 161.87158203 251.58398438 C169.00405249 255.927476 175.76360762 255.56766541 183.88720703 255.63476562 C185.04220703 255.66376953 186.19720703 255.69277344 187.38720703 255.72265625 C194.95250207 255.77879143 200.86991038 255.30333277 206.65136719 249.90966797 C212.07935574 243.82728252 212.43202658 238.37655606 212.41567993 230.60966492 C212.42436853 229.13317788 212.42436853 229.13317788 212.43323267 227.62686282 C212.45024983 224.32567166 212.45311068 221.02462016 212.45605469 217.72338867 C212.46535166 215.35814572 212.47551999 212.99290605 212.48649597 210.62767029 C212.51383593 204.20255843 212.52895727 197.77746854 212.541924 191.35231376 C212.5550118 185.31911565 212.57909276 179.28595531 212.60219435 173.25278912 C212.64765112 161.30387987 212.68427054 149.35496056 212.71533203 137.40600586 C212.74552214 125.79954257 212.77987453 114.1931039 212.81982422 102.58666992 C212.82228577 101.8711046 212.82474732 101.15553928 212.82728346 100.41829016 C212.83965815 96.82846599 212.85211466 93.23864212 212.86461186 89.64881837 C212.96816297 59.87333148 213.05574357 30.09782329 213.13720703 0.32226562 C229.63720703 0.32226562 246.13720703 0.32226562 263.13720703 0.32226562 C263.24756505 34.33596565 263.33983532 68.34949103 263.39253368 102.36331639 C263.39878674 106.38470799 263.4052584 110.4060992 263.41186523 114.42749023 C263.41317679 115.22803095 263.41448834 116.02857167 263.41583963 116.8533712 C263.43755879 129.79251626 263.47696092 142.73154954 263.52297101 155.67062844 C263.56983309 168.96076973 263.59752297 182.25085274 263.60764951 195.54107326 C263.61448853 203.73291738 263.63603883 211.92444545 263.67678937 220.11619221 C263.70334837 225.74396903 263.7111785 231.37158396 263.70471392 236.9994188 C263.70153124 240.23992328 263.70897889 243.47976703 263.73323441 246.72019768 C263.87686767 266.90813208 262.16148716 283.44276534 247.94970703 299.07226562 C233.92090931 312.1595333 217.26270217 314.45688233 198.98876953 314.56054688 C198.31248882 314.5646224 197.63620811 314.56869793 196.93943405 314.57289696 C193.3525296 314.59366324 189.76566222 314.60799965 186.17871094 314.61743164 C183.25206375 314.62624343 180.32589881 314.64701516 177.39941406 314.67895508 C129.48157509 315.19040995 129.48157509 315.19040995 111.38330078 297.78710938 C99.88023738 285.16374763 95.69695289 269.68752991 93.41650391 253.25488281 C93.07085632 250.86314657 92.6246905 248.50141923 92.13720703 246.13476562 C91.98380859 245.3896875 91.83041016 244.64460937 91.67236328 243.87695312 C91.40746094 242.61238281 91.40746094 242.61238281 91.13720703 241.32226562 C88.03952385 226.45980644 88.03952385 226.45980644 87.38330078 219.29492188 C87.04370706 216.57278169 86.31949474 213.99780244 85.60595703 211.35351562 C84.93343455 208.43925154 84.70353951 205.51401866 84.41845703 202.54101562 C84.14635658 200.39444537 83.70037347 198.40929418 83.13720703 196.32226562 C82.19140799 192.81724567 81.75912239 189.40716533 81.48095703 185.79101562 C81.08460806 182.94450936 80.35280322 180.22292588 79.63671875 177.44287109 C78.8359252 174.04321677 78.41192883 170.59264803 77.94970703 167.13476562 C75.98675327 153.3795489 73.2564457 139.75968047 70.62548828 126.12052917 C69.58038209 120.68509519 68.56642159 115.24463817 67.57197571 109.79971313 C66.87459873 105.98438435 66.16871559 102.17064957 65.46224976 98.35699463 C65.1237703 96.51798001 64.78907959 94.67826354 64.45840454 92.83782959 C62.18205913 77.4634813 62.18205913 77.4634813 54.38720703 64.44726562 C46.74682544 59.45163151 40.13208471 58.82369903 31.19970703 58.88476562 C30.16652344 58.86478516 29.13333984 58.84480469 28.06884766 58.82421875 C20.8234373 58.82880736 14.05752421 59.7355799 8.51635742 64.80517578 C5.26405095 68.53015771 4.01615069 71.60825118 3.99854183 76.4708128 C3.99306739 77.31976767 3.98759294 78.16872255 3.98195261 79.04340333 C3.9809745 79.97627429 3.97999639 80.90914525 3.97898865 81.87028503 C3.97405067 82.86106798 3.96911269 83.85185093 3.96402508 84.8726576 C3.94861148 88.20766518 3.940279 91.54265345 3.93188477 94.87768555 C3.92230928 97.26233593 3.9122994 99.6469846 3.90188599 102.03163147 C3.87761106 107.84454437 3.85788161 113.65746004 3.84013324 119.47039624 C3.81924065 126.23336783 3.79277846 132.99631411 3.76596177 139.75926439 C3.71828543 151.82020991 3.67502136 163.88116707 3.63452148 175.94213867 C3.59516677 187.65927029 3.55374061 199.37639155 3.50952148 211.09350586 C3.50679721 211.81557062 3.50407294 212.53763538 3.50126611 213.28158089 C3.48758664 216.90391436 3.47386637 220.52624767 3.4601258 224.14858091 C3.34616036 254.20645544 3.2401621 284.26435079 3.13720703 314.32226562 C-13.03279297 314.32226562 -29.20279297 314.32226562 -45.86279297 314.32226562 C-45.95110562 280.34261501 -46.02491174 246.3630765 -46.06705429 212.38334552 C-46.07205664 208.36453158 -46.07723398 204.34571788 -46.08251953 200.3269043 C-46.08356877 199.5268882 -46.08461801 198.7268721 -46.08569905 197.9026131 C-46.10306683 184.97777347 -46.13458433 172.05300559 -46.17140415 159.12820841 C-46.20891488 145.84935507 -46.23105015 132.57053911 -46.23914695 119.29163498 C-46.24461381 111.10905887 -46.26183023 102.92668559 -46.29445884 94.74417197 C-46.31573209 89.12013091 -46.32196432 83.4961935 -46.31679848 77.8721152 C-46.31425639 74.63550152 -46.3201754 71.39931062 -46.33961487 68.16274452 C-46.46091058 46.91295843 -45.70283978 28.92572708 -30.67529297 12.50976562 C-22.3850466 4.58860556 -11.40933802 0.03589139 0 0 Z M-32.86279297 17.32226562 C-42.67397429 29.75105461 -45.02753532 43.80933806 -44.98304749 59.18650818 C-44.98390191 60.27054698 -44.98475634 61.35458577 -44.98563665 62.47147423 C-44.98728168 66.09810584 -44.98178605 69.72469103 -44.97631836 73.35131836 C-44.97603625 75.95330301 -44.97619468 78.55528774 -44.97676086 81.15727234 C-44.97728445 86.75621965 -44.97415493 92.35515528 -44.96852303 97.95409966 C-44.96038562 106.04916806 -44.95779051 114.14423083 -44.95653503 122.23930288 C-44.95434804 135.3739753 -44.9476975 148.5086415 -44.93823242 161.64331055 C-44.9290492 174.40014617 -44.92197281 187.1569801 -44.91772461 199.91381836 C-44.91746189 200.70054613 -44.91719916 201.4872739 -44.91692848 202.2978419 C-44.91562341 206.24474226 -44.91435971 210.19164263 -44.91311657 214.13854301 C-44.90275493 246.86645526 -44.88487039 279.59435917 -44.86279297 312.32226562 C-29.35279297 312.32226562 -13.84279297 312.32226562 2.13720703 312.32226562 C2.15908081 301.37304932 2.15908081 301.37304932 2.18139648 290.20263672 C2.23015156 266.84856504 2.29355997 243.49455677 2.36619331 220.14054819 C2.37746151 216.51313273 2.38859996 212.88571689 2.3996582 209.25830078 C2.40186189 208.53614587 2.40406557 207.81399096 2.40633603 207.06995256 C2.44171092 195.3760708 2.46657397 183.6821891 2.48755405 171.98827367 C2.50931459 159.98973018 2.5423674 147.99125615 2.58590859 135.99277174 C2.61004166 129.25319216 2.62895028 122.51368173 2.63482094 115.7740593 C2.64085615 109.43263661 2.66079963 103.0914109 2.69148254 96.75006104 C2.70028783 94.42083731 2.70398022 92.09158787 2.70221519 89.76234818 C2.70056748 86.58501939 2.71721955 83.40829464 2.73847961 80.23104858 C2.73363204 79.30691615 2.72878446 78.38278371 2.72378999 77.43064725 C2.78041643 72.31127723 3.29038094 68.75774503 6.13720703 64.32226562 C8.03955078 62.67773438 8.03955078 62.67773438 10.07470703 61.50976562 C10.74373047 61.11144531 11.41275391 60.713125 12.10205078 60.30273438 C18.14588105 57.39102344 24.83119154 58.10001596 31.38720703 58.07226562 C32.58990234 58.05164063 33.79259766 58.03101563 35.03173828 58.00976562 C43.09812336 57.97434791 49.37110539 58.32650295 55.88720703 63.50976562 C60.51395067 69.29319517 62.7084172 75.37677593 63.98974609 82.59887695 C64.14051668 83.39204504 64.29128727 84.18521313 64.44662666 85.00241661 C64.94373399 87.63433423 65.42340295 90.26910634 65.90283203 92.90429688 C66.25618957 94.79780877 66.61051334 96.69114057 66.96572876 98.58430481 C67.92216155 103.70033032 68.8628081 108.81914461 69.80031586 113.9386673 C70.58528207 118.21344484 71.37993372 122.48639923 72.17440605 126.75941849 C76.48626844 149.96295098 80.67168696 173.18789362 84.73876953 196.43554688 C85.01272804 198.0003992 85.01272804 198.0003992 85.29222107 199.5968647 C87.05026214 209.64383464 88.80012351 219.69210108 90.52026558 229.74563503 C91.15343728 233.44000839 91.79227052 237.13339047 92.43198776 240.82663536 C92.72389762 242.52116976 93.01305142 244.21618191 93.29906082 245.91172218 C96.86255542 267.03582521 101.42280353 288.47022197 119.13720703 302.32226562 C132.46218264 311.16233985 148.00053931 312.95384144 163.55517578 312.85351562 C165.07058458 312.85622256 166.58599167 312.86011484 168.10139465 312.8651123 C171.24688578 312.87094575 174.39191671 312.86264356 177.53735352 312.84375 C181.53123731 312.82090391 185.52404863 312.83415778 189.51789379 312.85803986 C192.63670175 312.87261613 195.75526263 312.86783936 198.87407875 312.85752869 C200.34540249 312.85489697 201.8167501 312.85800288 203.28804588 312.8674469 C219.90457195 312.9507996 234.52206293 308.79455873 246.88720703 297.32226562 C262.91977447 280.39645515 262.57867619 259.58281904 262.4777832 237.68212891 C262.47693588 235.09881602 262.47741412 232.51550241 262.47911072 229.93218994 C262.48067497 224.39498634 262.4713553 218.85788974 262.4543972 213.32071304 C262.42989557 205.31514956 262.42219059 197.30963721 262.41843323 189.3040403 C262.41188614 176.31187653 262.39197257 163.31976965 262.36352539 150.32763672 C262.33593951 137.71566042 262.31472817 125.10369964 262.30200195 112.49169922 C262.30121378 111.71278451 262.30042561 110.93386979 262.29961356 110.13135161 C262.29569812 106.22331392 262.29190707 102.31527612 262.28817785 98.40723825 C262.25713627 66.04553768 262.20351593 33.68391367 262.13720703 1.32226562 C246.62720703 1.32226562 231.11720703 1.32226562 215.13720703 1.32226562 C214.98279121 15.14560468 214.98279121 15.14560468 214.83325195 28.96899414 C214.76650763 35.24406536 214.69918991 41.51912725 214.6288147 47.79415894 C214.32326446 75.13365932 214.10638238 102.47146579 214.01448613 129.81241632 C213.99519134 135.49153623 213.97243801 141.17063392 213.94743347 146.84973145 C213.94392142 147.65144925 213.94040936 148.45316705 213.93679088 149.27917933 C213.92255916 152.51467286 213.90823535 155.75016588 213.89351213 158.98565722 C213.84974578 168.63170278 213.81829891 178.27760812 213.80641174 187.92374724 C213.79783252 194.05687358 213.77488218 200.18984498 213.74122143 206.32288438 C213.72211853 209.9010851 213.70975597 213.47899424 213.71487808 217.05724907 C213.72039027 220.9785567 213.69511865 224.89933713 213.66723633 228.82055664 C213.67383554 229.96224367 213.68043474 231.1039307 213.68723392 232.28021431 C213.59448088 240.207313 212.45261297 246.91961216 206.76220703 252.75976562 C199.4509892 257.111681 192.08383088 256.6890271 183.82470703 256.69726562 C182.54402344 256.72175781 181.26333984 256.74625 179.94384766 256.77148438 C171.76542252 256.79673942 164.8076224 256.27893841 158.37670898 250.83081055 C150.68931006 242.75514741 149.91307024 230.76979151 147.97705078 220.25976562 C147.67235329 218.63154863 147.36711082 217.00343355 147.06137085 215.37541199 C146.40390377 211.86761265 145.75052773 208.35908423 145.10025024 204.84994507 C144.06334571 199.25514082 143.01601771 193.66231465 141.96801758 188.06958008 C138.43213781 169.17846493 134.94007618 150.27944864 131.48039246 131.37423706 C130.06588286 123.6447924 128.64562405 115.91640617 127.22461414 108.18815422 C126.05010795 101.79579551 124.88524688 95.40177306 123.72758865 89.00634289 C122.99816581 84.98805701 122.26046103 80.97132143 121.52074051 76.95491982 C121.1810183 75.10061883 120.8447107 73.2456881 120.51227951 71.39006615 C116.56904173 49.4000335 111.26279963 24.51186704 92.26220703 10.44726562 C79.65339981 2.24092096 66.79418882 1.00605359 52.11376953 1.02148438 C50.56114591 1.01758857 49.00852334 1.01325211 47.4559021 1.00849915 C44.21324193 1.00107106 40.97069069 1.0013032 37.72802734 1.0065918 C33.60054167 1.0123807 29.47350558 0.99545298 25.34609413 0.97224712 C22.142481 0.95741791 18.93897387 0.9566505 15.73533249 0.95975685 C14.21489955 0.9592482 12.69445995 0.95409761 11.17406082 0.94394493 C-5.9171028 0.84380505 -20.91278063 4.3282931 -32.86279297 17.32226562 Z " fill="#EFF4F8" transform="translate(538.86279296875,329.677734375)"/>
<path d="M0 0 C0.85127435 -0.00367669 1.70254869 -0.00735338 2.57961923 -0.01114148 C5.40727791 -0.02207775 8.23489973 -0.02600485 11.06257629 -0.02983093 C13.10027683 -0.03610307 15.13797625 -0.04275053 17.17567444 -0.04974365 C23.8447542 -0.07069294 30.51383396 -0.08113582 37.18293762 -0.09111023 C39.48604659 -0.09516086 41.78915544 -0.09927787 44.09226418 -0.10346031 C54.9130065 -0.12248999 65.73374208 -0.13672704 76.5544979 -0.14507228 C89.01622946 -0.15484394 101.47778337 -0.18117115 113.93945235 -0.22157317 C123.59242816 -0.25178831 133.24535317 -0.26654618 142.89837533 -0.26985329 C148.65445984 -0.27219705 154.41035407 -0.28107024 160.16638756 -0.30631447 C165.58458399 -0.3296956 171.00246615 -0.33378815 176.42070007 -0.32355309 C178.39989585 -0.3230601 180.37910765 -0.32930987 182.35825539 -0.34310913 C199.47841816 -0.45572017 214.31850675 1.32451098 227.54621887 13.40107727 C236.60179953 22.80378852 242.30397961 34.36305455 242.35212708 47.52851868 C242.35979347 48.58137558 242.35979347 48.58137558 242.36761475 49.65550232 C242.38142121 51.95750152 242.38055979 54.25919802 242.37825012 56.56123352 C242.38214395 58.17918506 242.38648002 59.7971356 242.39123535 61.41508484 C242.39867987 64.8025392 242.39842062 68.18988934 242.3931427 71.5773468 C242.38737182 75.88404701 242.40422969 80.1903138 242.42748737 84.49694252 C242.44234312 87.83960905 242.44308011 91.1821743 242.43997765 94.52486801 C242.44048564 96.11063363 242.44562354 97.69640571 242.45578957 99.28213882 C242.54914172 115.88863837 239.88215221 129.94858341 229.76496887 143.52217102 C225.90177606 147.29552214 221.6491367 150.28678966 217.07746887 153.14717102 C216.16577942 153.74670593 216.16577942 153.74670593 215.235672 154.35835266 C208.5633014 158.45605852 201.68614573 159.90256434 194.07746887 161.45967102 C191.29482059 162.05348595 188.51443349 162.65765695 185.73371887 163.26045227 C185.02058533 163.41353851 184.30745178 163.56662476 183.57270813 163.72434998 C176.56277205 165.23620617 169.59985033 166.92420969 162.6374054 168.6396637 C150.13670135 171.71946678 137.60758931 174.62963389 125.0403595 177.42793274 C113.88822834 179.92769453 102.78986109 182.63057055 91.69166565 185.35862732 C81.27247746 187.91756313 70.84645947 190.38643941 60.33918762 192.56367493 C56.07609234 193.45407897 51.88162116 194.45380337 47.68684387 195.62763977 C41.03046605 197.48202502 34.28402273 198.83004801 27.50715637 200.16474915 C17.1634113 201.98050476 17.1634113 201.98050476 8.85163879 207.72187805 C7.65584034 211.46803443 7.77240691 215.1323234 7.77668762 219.04170227 C7.77025993 220.34007271 7.77025993 220.34007271 7.76370239 221.66467285 C7.75796573 223.49452339 7.75745394 225.32439672 7.76179504 227.1542511 C7.76494594 229.93940177 7.74151958 232.72348042 7.71614075 235.50849915 C7.71386663 237.29039885 7.71316478 239.0723014 7.71418762 240.85420227 C7.70497787 241.68047623 7.69576813 242.50675018 7.6862793 243.35806274 C7.73668965 249.73051037 8.72137941 254.72563463 13.32746887 259.45967102 C19.38374048 263.17601951 25.31899588 263.44172781 32.2333374 263.42564392 C33.13361634 263.43143632 34.03389528 263.43722872 34.9614554 263.44319665 C37.96622773 263.46014848 40.97084601 263.46306902 43.97566223 263.46601868 C46.13430658 263.47532017 48.29294735 263.48548917 50.45158386 263.49645996 C56.30428086 263.52374901 62.1569538 263.5389062 68.00969768 263.55188799 C74.12896021 263.56752325 80.24817365 263.59431224 86.36740112 263.61991882 C97.95171244 263.66669954 109.53603299 263.70344712 121.12039047 263.7365917 C134.31017504 263.77481803 147.49991029 263.82422688 160.68965328 263.87457585 C187.81889326 263.97788524 214.94815399 264.06567276 242.07746887 264.14717102 C242.07746887 280.64717102 242.07746887 297.14717102 242.07746887 314.14717102 C209.92362508 314.21336332 177.76984765 314.26873427 145.61595617 314.30036701 C141.81601758 314.30411893 138.01607913 314.30800191 134.21614075 314.31196594 C133.45967232 314.31275287 132.70320389 314.3135398 131.92381218 314.31435058 C119.69076183 314.32738849 107.45775397 314.3510334 95.22472879 314.37862941 C82.66345565 314.40672862 70.1022047 314.42335681 57.54090142 314.4294365 C49.79595674 314.4335436 42.05113218 314.44649433 34.3062245 314.47092042 C28.35771436 314.4887202 22.40926517 314.49052527 16.46072769 314.48649406 C14.02757403 314.48731712 11.59441568 314.49325411 9.16128922 314.50478745 C-8.71194594 314.58532945 -24.44772792 314.50926604 -38.50065613 301.81904602 C-47.71486154 292.11667079 -52.23007164 281.3463889 -52.21305847 267.9655304 C-52.2197757 267.19027008 -52.22649292 266.41500977 -52.2334137 265.61625671 C-52.25227781 263.07441131 -52.25631291 260.53283192 -52.25846863 257.99092102 C-52.26490783 256.20222368 -52.271637 254.41352737 -52.27864075 252.62483215 C-52.29058701 248.87932398 -52.29432463 245.13390782 -52.2931366 241.38838196 C-52.29293431 236.63240364 -52.3201546 231.87702891 -52.35468102 227.12119293 C-52.37713337 223.42497656 -52.38096848 219.72890081 -52.37991714 216.03262329 C-52.38224879 214.28185969 -52.39093158 212.53109071 -52.40658188 210.78039551 C-52.52269003 196.44263174 -51.68613106 181.17164534 -42.92253113 169.14717102 C-42.33085144 168.32861633 -41.73917175 167.51006165 -41.12956238 166.66670227 C-30.58251228 153.5867771 -15.4602341 149.68655292 0.26496887 146.33467102 C1.92623395 145.96497738 3.58704524 145.59323853 5.24739075 145.21943665 C8.43395748 144.50362933 11.62255862 143.79831608 14.81306458 143.10029602 C18.39545077 142.30967044 21.95311737 141.44457434 25.50715637 140.53388977 C31.30342592 139.05607453 37.14197435 137.8995574 43.01496887 136.77217102 C51.77223356 135.05937516 60.46840305 133.20147563 69.12214661 131.0226593 C74.61466098 129.66140214 80.13633284 128.52165139 85.68684387 127.42842102 C98.18067702 124.96140553 110.63244903 122.29972829 123.07812786 119.60200596 C126.6680117 118.8238676 130.25868388 118.04993245 133.85163879 117.28608704 C137.39754763 116.5321801 140.9410591 115.76782158 144.48318672 114.99635124 C146.4405899 114.57258423 148.40016533 114.15888943 150.35980225 113.74557495 C167.48452398 110.29007502 167.48452398 110.29007502 180.21418762 99.41670227 C185.50381666 90.71201449 185.10199066 79.94548083 183.61653137 70.08857727 C181.96312635 63.85426775 179.04437684 57.60637603 173.4135437 54.11565399 C166.29565183 50.49888483 159.44856919 50.57988828 151.61262512 50.6295929 C150.16778358 50.62416358 148.72294759 50.61703639 147.27812195 50.60835266 C143.37720885 50.59021231 139.47672181 50.59714799 135.57580185 50.609869 C131.48007365 50.62004516 127.38438025 50.61059057 123.28865051 50.60432434 C116.41252643 50.5970613 109.53657458 50.60660021 102.66047668 50.62568665 C94.7276876 50.64745289 86.79530984 50.64040056 78.86253071 50.61838102 C72.03335473 50.60018857 65.20430207 50.59768743 58.37510967 50.6081357 C54.3043208 50.61434957 50.23372484 50.61526467 46.16294861 50.60198975 C42.33450841 50.5903756 38.50659493 50.59855732 34.67821121 50.62156677 C33.27906796 50.62682437 31.87987984 50.62539098 30.48075485 50.61651611 C19.14227701 50.47547261 19.14227701 50.47547261 9.07746887 55.14717102 C5.12561636 60.89963299 5.12561636 60.89963299 5.07746887 72.14717102 C-13.73253113 72.14717102 -32.54253113 72.14717102 -51.92253113 72.14717102 C-52.00503113 66.12467102 -52.08753113 60.10217102 -52.17253113 53.89717102 C-52.20894714 52.02255188 -52.24536316 50.14793274 -52.28288269 48.21650696 C-52.42904951 35.32168179 -51.10737193 23.97076574 -41.92253113 14.14717102 C-30.48045933 2.57048662 -15.66025982 -0.00371367 0 0 Z M-42.37565613 17.10810852 C-48.23643781 24.83368437 -50.24945454 33.16811893 -50.11784363 42.70576477 C-50.11582947 43.40641052 -50.11381531 44.10705627 -50.11174011 44.82893372 C-50.10137701 47.41424731 -50.07345544 49.99946664 -50.04753113 52.58467102 C-50.00628113 58.38029602 -49.96503113 64.17592102 -49.92253113 70.14717102 C-32.10253113 70.14717102 -14.28253113 70.14717102 4.07746887 70.14717102 C4.40746887 66.51717102 4.73746887 62.88717102 5.07746887 59.14717102 C6.85181647 54.88873679 8.98403434 53.19388829 13.07746887 51.14717102 C16.32788239 50.06369985 18.69636662 50.01597607 22.11694336 50.00672913 C23.38004333 50.00101898 24.64314331 49.99530884 25.94451904 49.98942566 C27.34715261 49.9881803 28.74978629 49.9870552 30.15242004 49.98603821 C31.62754948 49.98140952 33.10267772 49.97638479 34.57780457 49.97099304 C38.58836629 49.95786946 42.59891127 49.95142384 46.60949111 49.94698238 C49.11635485 49.9440508 51.62321402 49.93994576 54.13007545 49.93547821 C61.97680458 49.92180164 69.82352325 49.91213651 77.67026347 49.90827632 C86.72147033 49.90379898 95.77252591 49.88626687 104.82368678 49.85727572 C111.82339288 49.83563575 118.8230565 49.82557076 125.82279569 49.8242352 C130.00150289 49.82318857 134.18006793 49.81731139 138.35873985 49.79941559 C142.29285844 49.78289542 146.22672861 49.78079842 150.1608696 49.7895546 C151.60075739 49.79032294 153.04065875 49.78600903 154.48051262 49.77609634 C170.70740174 49.67098126 170.70740174 49.67098126 177.82746887 55.33467102 C186.45281925 66.11635899 186.02940287 78.92645637 185.07746887 92.14717102 C183.89793505 98.31485392 181.37665112 103.06751406 176.24841595 106.81208515 C168.11292894 111.8152351 158.10715488 113.45614655 148.90242004 115.4276886 C147.51092337 115.73152761 146.11957513 116.03604711 144.72836304 116.34118652 C140.9764925 117.16216601 137.22266874 117.97386303 133.46843505 118.78395677 C129.49874313 119.64238753 125.53104745 120.50994851 121.56314087 121.37658691 C114.02859272 123.02087906 106.49246367 124.65779482 98.95565635 126.2916972 C85.54558463 129.19914375 72.13842549 132.11998135 58.73156148 135.04217833 C54.05198636 136.06186342 49.37178698 137.07861659 44.69105154 138.09296125 C36.16968399 139.93995093 27.6523752 141.8045322 19.13964033 143.69091845 C17.04944496 144.15337127 14.95868715 144.61321858 12.86787796 145.07288742 C9.44449898 145.82707371 6.02418077 146.59398855 2.60565054 147.36984575 C0.75297858 147.78793162 -1.10202518 148.19564378 -2.95711231 148.60287952 C-17.4145005 151.91966343 -31.42116816 157.26554942 -40.92253113 169.14717102 C-50.06042094 183.91631122 -51.08302383 199.11127463 -51.12565613 216.00263977 C-51.12848351 216.76238916 -51.13131088 217.52213856 -51.13422394 218.30491066 C-51.14915139 222.32695988 -51.15842109 226.34897383 -51.1627655 230.37104797 C-51.16823592 234.48824732 -51.1922522 238.60511364 -51.22073746 242.72220898 C-51.23952027 245.92159925 -51.2445777 249.12091184 -51.24610138 252.32035255 C-51.24909407 253.8363508 -51.25700533 255.35234883 -51.27028656 256.86829185 C-51.40208106 273.06941775 -49.16038326 287.62932966 -37.79753113 299.95967102 C-26.01395637 311.06648642 -11.14174896 313.31583521 4.37861633 313.26742554 C5.39000561 313.26827996 6.40139489 313.26913439 7.44343233 313.2700147 C10.81820756 313.27165632 14.19293263 313.26616976 17.56770325 313.26069641 C19.99249775 313.26041423 22.41729234 313.26057288 24.84208679 313.26113892 C30.05523154 313.26136633 35.26836503 313.25853759 40.48150635 313.25290108 C48.01873518 313.24475706 55.55595797 313.24216789 63.09319073 313.24091309 C75.32330511 313.23872712 87.55341281 313.2320794 99.78352356 313.22261047 C111.66047635 313.21342457 123.53742731 313.2063495 135.41438293 313.20210266 C136.51343162 313.20170858 136.51343162 313.20170858 137.63468331 313.20130653 C141.31059975 313.20000145 144.98651621 313.19873775 148.66243267 313.19749463 C179.13411725 313.1871362 209.60578955 313.16870554 240.07746887 313.14717102 C240.07746887 297.30717102 240.07746887 281.46717102 240.07746887 265.14717102 C233.52596985 265.1325885 226.97447083 265.11800598 220.22444153 265.10298157 C198.59110637 265.05267037 176.95784302 264.98623165 155.32457924 264.91145611 C142.20689828 264.86650926 129.08924441 264.82709195 115.97151184 264.80073547 C104.53680263 264.7777465 93.10217921 264.74433823 81.66753805 264.69846946 C75.61417266 264.67454957 69.56089217 264.65581263 63.50748062 264.64955711 C57.80624132 264.64350079 52.1052192 264.62348071 46.40406036 264.59289551 C44.31517674 264.58412414 42.22626472 264.58039083 40.13736343 264.58216286 C37.27670574 264.58382291 34.41670443 264.56705395 31.55613708 264.54589844 C30.73703877 264.55074601 29.91794046 264.55559359 29.07402098 264.56058806 C22.1371026 264.47640991 14.68749773 263.62988139 9.51496887 258.70967102 C7.46943988 255.06329325 6.95461198 251.97297776 6.91633606 247.82514954 C6.90672852 246.98069778 6.89712097 246.13624603 6.88722229 245.26620483 C6.88297241 244.36196274 6.87872253 243.45772064 6.87434387 242.52607727 C6.8686438 241.5891655 6.86294373 240.65225372 6.85707092 239.68695068 C6.84763577 237.70747503 6.84109285 235.72798376 6.8372345 233.74848938 C6.82751558 230.72420389 6.79647275 227.70059438 6.76496887 224.6764679 C6.75843966 222.75134171 6.75318887 220.82621068 6.74934387 218.90107727 C6.73699707 217.99885941 6.72465027 217.09664154 6.71192932 216.16708374 C6.74209155 207.64832993 6.74209155 207.64832993 10.07746887 204.14717102 C16.44412104 201.42959293 22.96315505 199.84077314 29.69172668 198.27485657 C31.40696785 197.86902092 31.40696785 197.86902092 33.15686035 197.45498657 C36.28959606 196.71487954 39.42338855 195.97946714 42.55772114 195.24615836 C45.9084308 194.46104546 49.25772285 193.66992801 52.60719299 192.87954712 C59.01202552 191.36915443 65.41813273 189.86424097 71.82469916 188.36122209 C78.8748674 186.70690836 85.92349972 185.04610141 92.97203922 183.38486457 C97.13761834 182.40335463 101.3034824 181.42305478 105.46932173 180.44264996 C108.94261038 179.62513274 112.41574926 178.80698884 115.88858032 177.98752975 C130.58916006 174.51892313 145.29522474 171.08275918 160.03096247 167.7663058 C164.16812513 166.8332835 168.30322736 165.89116129 172.43832469 164.94903332 C175.69010409 164.20927099 178.94334748 163.47869922 182.19997406 162.76039696 C209.79102154 156.75014463 209.79102154 156.75014463 230.88215637 138.73701477 C239.61449457 125.03028492 241.38937186 110.42564054 241.37825012 94.49482727 C241.38215037 93.10439937 241.3864877 91.71397263 241.39123535 90.32354736 C241.39864324 87.42658097 241.39844582 84.52973658 241.3931427 81.63276672 C241.38734972 77.95381725 241.40430116 74.27537151 241.42748737 70.59650517 C241.44234664 67.72998221 241.44308012 64.86357729 241.43997765 61.99702263 C241.44072775 59.99212288 241.45449315 57.9872412 241.46865845 55.98239136 C241.38945588 40.15257028 237.54884528 27.07653758 226.52668762 15.47138977 C219.547351 8.84825534 212.27709271 4.88060558 203.07746887 2.14717102 C202.53525066 1.97008228 201.99303246 1.79299355 201.43438339 1.61053848 C197.94353005 0.92423958 194.46495129 1.00276783 190.92152405 1.00672913 C189.67763873 1.00227244 189.67763873 1.00227244 188.40862441 0.99772573 C185.62537748 0.98904327 182.84217359 0.98753081 180.05891418 0.98603821 C178.06460478 0.98140942 176.07029626 0.97638468 174.07598877 0.97099304 C168.65177093 0.95786601 163.22756548 0.95142257 157.80333424 0.94698238 C154.41010942 0.94404992 151.01688797 0.93994461 147.62366486 0.93547821 C136.99511616 0.92179758 126.36657517 0.91213577 115.73801827 0.90827632 C103.49305992 0.9038051 91.24821373 0.88630313 79.00328946 0.85727572 C69.5261771 0.83559495 60.04909613 0.8255685 50.57195926 0.8242352 C44.91861328 0.82319102 39.26537265 0.81736686 33.61205292 0.79941559 C28.28341784 0.78282592 22.95496601 0.78083184 17.62631416 0.7895546 C15.68183206 0.79031939 13.73733966 0.78605692 11.79288292 0.77609634 C-7.58568299 0.68273975 -28.43074917 1.67336108 -42.37565613 17.10810852 Z " fill="#F6F9FB" transform="translate(206.9225311279297,329.8528289794922)"/>
<path d="M0 0 C0 0.33 0 0.66 0 1 C-1.48886719 1.20302734 -1.48886719 1.20302734 -3.0078125 1.41015625 C-15.11012866 3.2510635 -27.22594671 6.66954831 -35.67578125 16.18359375 C-41.29987388 23.89805709 -43.27017334 32.16650946 -43.4140625 41.55859375 C-43.43170654 42.2592395 -43.44935059 42.95988525 -43.4675293 43.6817627 C-43.529981 46.26678701 -43.57659039 48.8521746 -43.625 51.4375 C-43.74875 57.233125 -43.8725 63.02875 -44 69 C-26.18 69 -8.36 69 10 69 C10 65.37 10 61.74 10 58 C11.3125 55 11.3125 55 13 53 C13.433125 52.443125 13.86625 51.88625 14.3125 51.3125 C18.46053576 48.08624996 23.3173115 47.74881028 28.40023804 47.73930359 C29.66746201 47.73221878 30.93468597 47.72513397 32.24031067 47.71783447 C33.63204992 47.72012797 35.02378883 47.72263762 36.41552734 47.7253418 C37.89110064 47.72099135 39.36667168 47.7158071 40.84223938 47.70985413 C44.84025317 47.69648789 48.83817228 47.69588285 52.83620405 47.69841743 C56.17852524 47.69948885 59.52082741 47.69459932 62.86314452 47.689812 C70.75122546 47.67872481 78.63925879 47.67827483 86.52734375 47.68432617 C94.65371798 47.69036466 102.77991902 47.67805636 110.90626371 47.6567561 C117.89329961 47.63911831 124.88028049 47.63314222 131.86733782 47.63639385 C136.03592873 47.63820354 140.2043961 47.63560203 144.37296677 47.62167931 C148.29482918 47.60907024 152.21642241 47.61107398 156.13828087 47.62409019 C157.57332769 47.62644893 159.00839363 47.62374659 160.4434185 47.61546707 C169.35087422 47.56780141 175.89764726 48.03351585 183.6875 52.5625 C192.6181126 61.97584842 192.4551121 73.69297329 192.26953125 85.86328125 C191.9792877 93.80851971 190.14309392 99.25141667 184.4375 104.875 C175.97375084 111.35337384 165.02764453 113.09522497 154.82495117 115.28051758 C153.43345449 115.58435659 152.04210626 115.88887609 150.65089417 116.1940155 C146.89902363 117.01499499 143.14519987 117.82669201 139.39096618 118.63678575 C135.42127426 119.49521651 131.45357858 120.36277749 127.485672 121.22941589 C119.95112384 122.87370804 112.4149948 124.5106238 104.87818748 126.14452618 C91.46811576 129.05197273 78.06095661 131.97281033 64.65409261 134.89500731 C59.97451749 135.9146924 55.29431811 136.93144557 50.61358267 137.94579023 C42.09221512 139.79277991 33.57490633 141.65736118 25.06217146 143.54374743 C22.97197609 144.00620025 20.88121827 144.46604756 18.79040909 144.9257164 C15.3670301 145.67990269 11.9467119 146.44681753 8.52818167 147.22267473 C6.67550971 147.6407606 4.82050595 148.04847276 2.96541882 148.4557085 C-10.67744361 151.5856256 -25.09883382 156.5705683 -34 168 C-43.06171568 182.8688715 -44.16032144 197.89624886 -44.203125 214.85546875 C-44.20595238 215.61521814 -44.20877975 216.37496754 -44.21169281 217.15773964 C-44.22662026 221.17978886 -44.23588996 225.20180281 -44.24023438 229.22387695 C-44.24570479 233.3410763 -44.26972107 237.45794262 -44.29820633 241.57503796 C-44.31698914 244.77442823 -44.32204658 247.97374082 -44.32357025 251.17318153 C-44.32656294 252.68917978 -44.3344742 254.20517781 -44.34775543 255.72112083 C-44.47636454 271.530676 -42.42380557 286.18408141 -31.375 298.3125 C-22.70137543 306.3290318 -12.35293209 309.08545228 -1 311 C-1 311.66 -1 312.32 -1 313 C-14.58500691 311.90443493 -25.82187854 307.8332023 -35.375 297.6875 C-42.91466848 288.60281749 -46.30545989 278.56280328 -46.29052734 266.81835938 C-46.29724457 266.04309906 -46.30396179 265.26783875 -46.31088257 264.46908569 C-46.32974669 261.92724029 -46.33378178 259.3856609 -46.3359375 256.84375 C-46.3423767 255.05505266 -46.34910587 253.26635635 -46.35610962 251.47766113 C-46.36805588 247.73215296 -46.37179351 243.9867368 -46.37060547 240.24121094 C-46.37040318 235.48523261 -46.39762348 230.72985789 -46.43214989 225.97402191 C-46.45460224 222.27780554 -46.45843735 218.58172979 -46.45738602 214.88545227 C-46.45971766 213.13468867 -46.46840045 211.38391969 -46.48405075 209.63322449 C-46.6001589 195.29546072 -45.76359993 180.02447432 -37 168 C-36.40832031 167.18144531 -35.81664062 166.36289062 -35.20703125 165.51953125 C-24.65998115 152.43960608 -9.53770297 148.5393819 6.1875 145.1875 C7.84876508 144.81780636 9.50957637 144.44606751 11.16992188 144.07226562 C14.35648861 143.35645831 17.54508975 142.65114506 20.7355957 141.953125 C24.3179819 141.16249942 27.8756485 140.29740332 31.4296875 139.38671875 C37.22595705 137.90890351 43.06450547 136.75238638 48.9375 135.625 C57.69476469 133.91220414 66.39093417 132.05430461 75.04467773 129.87548828 C80.5371921 128.51423112 86.05886397 127.37448037 91.609375 126.28125 C104.10320815 123.81423451 116.55498016 121.15255727 129.00065899 118.45483494 C132.59054282 117.67669658 136.18121501 116.90276143 139.77416992 116.13891602 C143.32007876 115.38500908 146.86359023 114.62065056 150.40571785 113.84918022 C152.36312103 113.42541321 154.32269646 113.01171841 156.28233337 112.59840393 C173.4070551 109.142904 173.4070551 109.142904 186.13671875 98.26953125 C191.42634778 89.56484347 191.02452179 78.79830981 189.5390625 68.94140625 C187.88565748 62.70709673 184.96690797 56.45920501 179.33607483 52.96848297 C172.21818296 49.35171381 165.37110032 49.43271726 157.53515625 49.48242188 C156.09031471 49.47699256 154.64547872 49.46986537 153.20065308 49.46118164 C149.29973998 49.44304129 145.39925294 49.44997697 141.49833298 49.46269798 C137.40260478 49.47287414 133.30691138 49.46341955 129.21118164 49.45715332 C122.33505755 49.44989028 115.45910571 49.45942919 108.58300781 49.47851562 C100.65021873 49.50028187 92.71784096 49.49322954 84.78506184 49.47121 C77.95588586 49.45301755 71.1268332 49.45051641 64.2976408 49.46096468 C60.22685193 49.46717855 56.15625596 49.46809365 52.08547974 49.45481873 C48.25703953 49.44320458 44.42912606 49.4513863 40.60074234 49.47439575 C39.20159909 49.47965335 37.80241097 49.47821996 36.40328598 49.46934509 C25.06480814 49.32830159 25.06480814 49.32830159 15 54 C11.04814748 59.75246196 11.04814748 59.75246196 11 71 C-7.81 71 -26.62 71 -46 71 C-46.0825 64.9775 -46.165 58.955 -46.25 52.75 C-46.28641602 50.87538086 -46.32283203 49.00076172 -46.36035156 47.06933594 C-46.50651838 34.17451077 -45.18484081 22.82359472 -36 13 C-31.54667023 8.49427812 -26.8238315 5.45386159 -21 3 C-20.31164062 2.69964844 -19.62328125 2.39929688 -18.9140625 2.08984375 C-12.62714304 -0.35002572 -6.67731644 -0.30505507 0 0 Z " fill="#EDF3F7" transform="translate(201,331)"/>
<path d="M0 0 C0.33 0 0.66 0 1 0 C1 87.12 1 174.24 1 264 C16.51 264 32.02 264 48 264 C47.98428955 256.70052246 47.9685791 249.40104492 47.95239258 241.88037109 C47.90424542 218.52635267 47.87087381 195.17233715 47.84680401 171.81828257 C47.84305188 168.19086664 47.83916891 164.56345086 47.83520508 160.93603516 C47.83441815 160.21388024 47.83363122 159.49172533 47.83282044 158.74768694 C47.81976557 147.05377048 47.79611128 135.35989826 47.76854161 123.66600804 C47.74048966 111.66751016 47.72382419 99.66903545 47.71773452 87.67050612 C47.7139871 80.9308935 47.70497187 74.19137313 47.68280983 67.45179367 C47.66247291 61.11042348 47.6561606 54.76919512 47.66067696 48.42779541 C47.65985051 46.09854995 47.65386837 43.76929984 47.64238358 41.44008255 C47.62748351 38.26280764 47.63103764 35.08607 47.63923645 31.90878296 C47.63049793 30.98465052 47.6217594 30.06051808 47.61275607 29.10838163 C47.65656249 22.8384301 48.58480603 18.41519397 53.1875 13.8125 C61.11580827 8.70314578 68.28271914 8.53473283 77.5 8.625 C78.68464844 8.61339844 79.86929688 8.60179687 81.08984375 8.58984375 C89.05235444 8.61647422 94.74283646 9.52490492 101.6875 13.5625 C110.09650087 22.42604146 111.12380401 35.07834201 113.20703125 46.59375 C113.57976377 48.59272499 113.9537828 50.59146047 114.32902527 52.58996582 C115.30744851 57.8211008 116.26747518 63.05545018 117.22387695 68.29064941 C118.01036352 72.57881164 118.80957041 76.86455616 119.60948658 81.15023041 C121.25897214 89.98770647 122.90024755 98.82672464 124.51879883 107.66992188 C124.66990616 108.48858734 124.82101349 109.30725281 124.97669983 110.15072632 C126 115.76825424 126 115.76825424 126 118 C125.34 118 124.68 118 124 118 C123.65388672 116.14882568 123.65388672 116.14882568 123.30078125 114.26025391 C122.97137364 112.4990198 122.64194465 110.73778968 122.3125 108.9765625 C122.13438278 108.02422226 121.95626556 107.07188202 121.77275085 106.09068298 C120.77537069 100.76039671 119.77581394 95.43052969 118.77270508 90.10131836 C118.35494947 87.88135349 117.93722516 85.66138273 117.51953125 83.44140625 C117.20372856 81.76319038 117.20372856 81.76319038 116.88154602 80.05107117 C115.67229152 73.61398761 114.47830889 67.17437995 113.30197144 60.73120117 C112.60322635 56.91077896 111.89594497 53.09196507 111.18725586 49.27337646 C110.85674139 47.48053327 110.53017725 45.68695687 110.20776367 43.89263916 C107.93709264 28.83867477 107.93709264 28.83867477 100.25 16.125 C92.60961841 11.12936588 85.99487768 10.5014334 77.0625 10.5625 C76.02931641 10.54251953 74.99613281 10.52253906 73.93164062 10.50195312 C66.68623026 10.50654173 59.92031718 11.41331427 54.37915039 16.48291016 C51.12684392 20.20789208 49.87894366 23.28598555 49.8613348 28.14854717 C49.85586036 28.99750205 49.85038591 29.84645692 49.84474558 30.7211377 C49.84376747 31.65400867 49.84278936 32.58687963 49.84178162 33.54801941 C49.83684364 34.53880235 49.83190566 35.5295853 49.82681805 36.55039197 C49.81140445 39.88539955 49.80307197 43.22038782 49.79467773 46.55541992 C49.78510225 48.9400703 49.77509236 51.32471897 49.76467896 53.70936584 C49.74040403 59.52227875 49.72067458 65.33519441 49.70292621 71.14813062 C49.68203362 77.91110221 49.65557143 84.67404849 49.62875474 91.43699876 C49.5810784 103.49794428 49.53781433 115.55890145 49.49731445 127.61987305 C49.45795974 139.33700466 49.41653358 151.05412592 49.37231445 162.77124023 C49.36959018 163.49330499 49.36686591 164.21536975 49.36405908 164.95931526 C49.35037961 168.58164873 49.33665933 172.20398205 49.32291877 175.82631528 C49.20895333 205.88418981 49.10295507 235.94208517 49 266 C32.83 266 16.66 266 0 266 C0 178.22 0 90.44 0 0 Z " fill="#FAFCFD" transform="translate(493,378)"/>
<path d="M0 0 C2.38409197 3.88527994 2.89387708 8.16713937 3.63232422 12.58544922 C3.78224823 13.45112015 3.93217224 14.31679108 4.0866394 15.20869446 C4.41131453 17.08793049 4.73309933 18.96766764 5.05233383 20.84783554 C5.55992757 23.83553053 6.07564049 26.82172241 6.59353638 29.80764771 C7.87980422 37.23276878 9.1535136 44.66003 10.42492676 52.08770752 C11.49749657 58.35265887 12.57622943 64.61648492 13.66345596 70.87891006 C14.16790131 73.79896151 14.66341738 76.72043554 15.15866089 79.64205933 C17.36950356 92.49577385 19.63534796 105.52312142 25.625 117.25 C25.96563477 117.91692871 26.30626953 118.58385742 26.65722656 119.27099609 C33.08731013 131.23118304 42.72310436 138.08855545 55.54536438 142.1126709 C65.32611914 144.71491331 74.32480159 145.5963499 84.41796875 145.53125 C85.93337755 145.53395694 87.44878464 145.53784921 88.96418762 145.54284668 C92.10967875 145.54868013 95.25470967 145.54037794 98.40014648 145.52148438 C102.39403028 145.49863829 106.3868416 145.51189216 110.38068676 145.53577423 C113.49949472 145.5503505 116.6180556 145.54557374 119.73687172 145.53526306 C121.20819546 145.53263134 122.67954307 145.53573725 124.15083885 145.54518127 C140.37604887 145.62657104 155.0900022 141.68793161 167.25 130.5 C175.56771045 121.66656505 179.44769179 111.44046776 181.39453125 99.66796875 C181.69423828 98.34732422 181.69423828 98.34732422 182 97 C182.66 96.67 183.32 96.34 184 96 C184.57741823 109.64806716 177.84223626 122.81948712 168.8125 132.75 C154.78370228 145.83726768 138.12549514 148.1346167 119.8515625 148.23828125 C119.17528179 148.24235678 118.49900108 148.2464323 117.80222702 148.25063133 C114.21532257 148.27139761 110.62845519 148.28573403 107.04150391 148.29516602 C104.11485672 148.30397781 101.18869177 148.32474953 98.26220703 148.35668945 C50.34436806 148.86814432 50.34436806 148.86814432 32.24609375 131.46484375 C20.74303035 118.841482 16.55974586 103.36526429 14.27929688 86.93261719 C13.93364929 84.54088095 13.48748347 82.17915361 13 79.8125 C12.84660156 79.06742188 12.69320312 78.32234375 12.53515625 77.5546875 C12.35855469 76.71164062 12.18195312 75.86859375 12 75 C8.90231682 60.13754082 8.90231682 60.13754082 8.24609375 52.97265625 C7.90650002 50.25051607 7.18228771 47.67553681 6.46875 45.03125 C5.79622752 42.11698591 5.56633248 39.19175304 5.28125 36.21875 C5.00914955 34.07217975 4.56316644 32.08702856 4 30 C3.03214056 26.41322677 2.63289459 22.91109894 2.28515625 19.21875 C2.00764001 17.05944552 1.53100644 15.09179891 0.9375 13 C-0.24436758 8.65773097 -0.18627009 4.47048213 0 0 Z " fill="#E6EEF4" transform="translate(618,496)"/>
<path d="M0 0 C0.76521469 -0.00992981 1.53042938 -0.01985962 2.3188324 -0.03009033 C4.83905725 -0.05918265 7.35902963 -0.07291807 9.87939453 -0.08398438 C10.74755924 -0.08963913 11.61572395 -0.09529388 12.51019669 -0.10112 C17.11276706 -0.13105797 21.71521303 -0.14954076 26.31787109 -0.15820312 C31.02933134 -0.16911092 35.73961747 -0.21704461 40.4507122 -0.27414703 C44.10919281 -0.31176467 47.76740223 -0.32183042 51.42605972 -0.32487488 C53.16012044 -0.33085648 54.89418062 -0.34666615 56.62804794 -0.37324524 C71.0853108 -0.57888497 84.83141511 1.56378071 96.16845703 11.39648438 C106.38827938 21.39325504 106.38827938 21.39325504 107.13720703 27.32226562 C104.5266191 24.91249215 102.50514776 22.42557379 100.51220703 19.50976562 C92.94263816 9.29655336 80.40868722 4.17029484 68.13720703 2.32226562 C62.79619692 2.02073561 57.46119501 2.01586362 52.11376953 2.02148438 C50.56114591 2.01758857 49.00852334 2.01325211 47.4559021 2.00849915 C44.21324193 2.00107106 40.97069069 2.0013032 37.72802734 2.0065918 C33.60054167 2.0123807 29.47350558 1.99545298 25.34609413 1.97224712 C22.142481 1.95741791 18.93897387 1.9566505 15.73533249 1.95975685 C14.21489955 1.9592482 12.69445995 1.95409761 11.17406082 1.94394493 C-4.14683472 1.85417733 -18.42455198 4.42434882 -29.98388672 15.25976562 C-38.379389 24.47561844 -42.71510352 35.98460406 -43.86279297 48.32226562 C-44.52279297 48.32226562 -45.18279297 48.32226562 -45.86279297 48.32226562 C-44.29135775 35.31657154 -41.69507642 25.22569834 -32.86279297 15.32226562 C-32.33943359 14.69449219 -31.81607422 14.06671875 -31.27685547 13.41992188 C-23.4735186 4.72205614 -11.51447881 0.03622214 0 0 Z " fill="#F0F5F8" transform="translate(538.86279296875,329.677734375)"/>
<path d="M0 0 C0.66 0 1.32 0 2 0 C-2.34198725 17.93276033 -10.27753 31.66521861 -23 45 C-23.58910156 45.67546875 -24.17820312 46.3509375 -24.78515625 47.046875 C-32.98484352 56.05752035 -44.22543432 62.2834907 -55.5 66.625 C-56.13357422 66.87266113 -56.76714844 67.12032227 -57.41992188 67.37548828 C-62.13472425 69.05634254 -66.0735684 69.20708451 -71 69 C-67.47708234 67.06239528 -63.83008547 65.94690171 -60 64.75 C-36.55119214 57.0767228 -19.3130033 42.07652245 -8.01025391 20.07324219 C-4.74970953 13.53286978 -1.86450932 7.07789459 0 0 Z " fill="#E1EBF2" transform="translate(892,661)"/>
<path d="M0 0 C23.08178938 2.11335411 43.33619053 15.75699189 58 33 C65.82292844 42.76383952 74.74833804 56.06162922 74 69 C73.67 69 73.34 69 73 69 C72.87625 68.46375 72.7525 67.9275 72.625 67.375 C66.79819042 45.23312358 52.18612345 26.39760036 32.71875 14.55859375 C21.64612737 8.21092647 10.66862906 3.86231298 -2 2 C-1.34 1.34 -0.68 0.68 0 0 Z " fill="#EEF4F8" transform="translate(818,243)"/>
<path d="M0 0 C0.99 0.66 1.98 1.32 3 2 C2.29617187 2.1959375 1.59234375 2.391875 0.8671875 2.59375 C-22.53476315 9.68154706 -40.10878394 25.97762886 -52 47 C-57.13273809 56.93616334 -59.76271638 67.12943369 -62 78 C-62.33 78 -62.66 78 -63 78 C-63.23333576 72.57671123 -62.5099949 68.11871511 -60.9375 62.9375 C-60.71416992 62.19798096 -60.49083984 61.45846191 -60.26074219 60.6965332 C-52.85590478 37.23025085 -36.4610793 17.79050442 -14.96337891 6.01757812 C-10.19632598 3.54691454 -5.26989037 1.11955182 0 0 Z " fill="#EFF4F8" transform="translate(126,246)"/>
<path d="M0 0 C0.99 0.33 1.98 0.66 3 1 C3.6712768 2.97850005 4.33055769 4.96145276 4.94921875 6.95703125 C13.14641698 30.69538598 28.72514913 48.39825373 51 60 C56.83578574 62.77632394 62.70176642 64.60039254 69 66 C67.46484375 67.1484375 67.46484375 67.1484375 65 68 C62.34580202 67.353813 60.07569553 66.63284331 57.5625 65.625 C56.50168213 65.20988159 56.50168213 65.20988159 55.41943359 64.78637695 C44.0822265 60.17482597 34.76969336 53.51220668 26 45 C25.32582031 44.39929688 24.65164062 43.79859375 23.95703125 43.1796875 C11.38899554 31.59000188 4.46830794 16.21830288 0 0 Z " fill="#EEF4F8" transform="translate(64,662)"/>
<path d="M0 0 C0.33 0 0.66 0 1 0 C1.14695313 0.81082031 1.29390625 1.62164063 1.4453125 2.45703125 C3.84627732 14.31007021 8.21070395 24.45959629 18 32 C26.21169178 37.25166335 34.48281492 39.39503092 44 41 C44 41.66 44 42.32 44 43 C30.41499309 41.90443493 19.17812146 37.8332023 9.625 27.6875 C4.08746534 21.01522463 0.44952858 13.55221862 -1 5 C-0.625 2 -0.625 2 0 0 Z " fill="#E4ECF3" transform="translate(156,601)"/>
<path d="M0 0 C0.33 0 0.66 0 1 0 C1.48642418 2.675333 1.33722781 4.42921071 -0.0546875 6.78515625 C-3.64308054 11.35308361 -7.27336032 13.70241313 -13 15 C-17.81889901 15.44718214 -22.60064958 15.46438497 -27.4375 15.4375 C-28.70916016 15.45748047 -29.98082031 15.47746094 -31.29101562 15.49804688 C-39.95004117 15.49355801 -46.78302451 14.74538504 -53.41015625 8.859375 C-53.95542969 8.16328125 -54.50070312 7.4671875 -55.0625 6.75 C-55.63097656 6.04359375 -56.19945312 5.3371875 -56.78515625 4.609375 C-57.18605469 4.07828125 -57.58695313 3.5471875 -58 3 C-57.01 3 -56.02 3 -55 3 C-54.4225 3.7425 -53.845 4.485 -53.25 5.25 C-49.78358705 9.48672694 -45.42730512 11.97326267 -40 13 C-35.75365732 13.276952 -31.50440128 13.27735902 -27.25 13.3125 C-25.5175 13.35600586 -25.5175 13.35600586 -23.75 13.40039062 C-16.17844969 13.45657222 -10.18134249 13.0028103 -4.45043945 7.51660156 C-2.32964597 5.10370935 -1.01900909 3.05702727 0 0 Z " fill="#FDFEFE" transform="translate(750,572)"/>
<path d="M0 0 C8.57792835 1.09933739 16.1052838 8.23183026 21.4375 14.73046875 C26.58528315 22.20762377 31 30.7967488 31 40 C30.34 40 29.68 40 29 40 C28.78085937 39.18917969 28.56171875 38.37835938 28.3359375 37.54296875 C23.65606719 21.20147038 16.76318161 11.07885425 2.125 2.34765625 C1.42375 1.90292969 0.7225 1.45820313 0 1 C0 0.67 0 0.34 0 0 Z " fill="#E2ECF3" transform="translate(418,334)"/>
<path d="M0 0 C10.69603819 0.97932252 24.68617567 5.05113191 33 12 C32.67 12.66 32.34 13.32 32 14 C31.26136719 13.61328125 30.52273438 13.2265625 29.76171875 12.828125 C19.36479532 7.49094957 9.59093421 3.70388975 -2 2 C-1.34 1.34 -0.68 0.68 0 0 Z " fill="#E2EBF3" transform="translate(818,243)"/>
<path d="M0 0 C0.66 0 1.32 0 2 0 C0.95293315 2.63705726 -0.1113125 5.26258332 -1.21875 7.875 C-4.35953228 15.53544458 -6.09819258 22.77605472 -7 31 C-7.66 31 -8.32 31 -9 31 C-8.27572417 19.71128705 -6.144502 9.61748139 0 0 Z " fill="#E0EAF2" transform="translate(164,499)"/>
<path d="M0 0 C0.99 0.33 1.98 0.66 3 1 C3.69377031 2.97724539 4.36994182 4.96187385 4.97265625 6.96875 C6.31823301 10.93896888 7.98932775 14.73230044 9.6875 18.5625 C10.00944336 19.28961182 10.33138672 20.01672363 10.66308594 20.76586914 C11.4389442 22.51196602 12.21902745 24.25618458 13 26 C10 25 10 25 8.53515625 22.734375 C4.88305588 15.33330157 2.18197718 7.95779912 0 0 Z " fill="#E3ECF3" transform="translate(64,662)"/>
<path d="M0 0 C0.66 0.33 1.32 0.66 2 1 C-2.02333839 6.61000706 -6.45631843 11.67131893 -11.3125 16.5625 C-11.84004883 17.09907227 -12.36759766 17.63564453 -12.91113281 18.18847656 C-16.75237573 22 -16.75237573 22 -19 22 C-17.62467585 18.80012522 -16.15654689 17.08527239 -13.4375 14.9375 C-8.23180063 10.56280218 -4.17193307 5.34046061 0 0 Z " fill="#F0F5F8" transform="translate(878,692)"/>
<path d="M0 0 C0.65234375 1.78125 0.65234375 1.78125 1 4 C-1.8901081 9.51418114 -7.19487764 13.09951351 -13 15 C-16.5 15.25 -16.5 15.25 -19 15 C-16.47702977 13.31801984 -14.4004611 12.30052621 -11.625 11.1875 C-6.16730177 8.80031167 -2.29391483 5.63051821 0 0 Z " fill="#DFE9F1" transform="translate(389,426)"/>
<path d="M0 0 C-0.556875 0.226875 -1.11375 0.45375 -1.6875 0.6875 C-5.19959577 2.68085165 -8.18059875 5.36119749 -10 9 C-10.2275015 10.87056791 -10.40962811 12.74685958 -10.5625 14.625 C-10.68818359 16.12933594 -10.68818359 16.12933594 -10.81640625 17.6640625 C-10.87699219 18.43492187 -10.93757812 19.20578125 -11 20 C-11.99 19.67 -12.98 19.34 -14 19 C-13.34 19 -12.68 19 -12 19 C-12.03480469 18.26394531 -12.06960937 17.52789062 -12.10546875 16.76953125 C-12.29151492 10.06300993 -11.93763309 6.4272386 -7.5 1.25 C-4.74914682 -1.04237765 -3.36078755 -1.12026252 0 0 Z " fill="#F2F6FA" transform="translate(223,381)"/>
<path d="M0 0 C0.33 0 0.66 0 1 0 C1.5022251 2.76223803 1.35673215 4.45674123 -0.1953125 6.8203125 C-2.85521591 10.01486986 -5.07559749 12.43178404 -9 14 C-9.99 14 -10.98 14 -12 14 C-12 13.34 -12 12.68 -12 12 C-10.6696875 11.443125 -10.6696875 11.443125 -9.3125 10.875 C-4.66530833 8.24451415 -1.7267191 5.18015731 0 0 Z " fill="#E4EDF3" transform="translate(750,572)"/>
<path d="M0 0 C6.3024349 2.5178462 9.52468922 5.13541306 13 11 C13 11.66 13 12.32 13 13 C12.34 13 11.68 13 11 13 C9.66796875 11.35546875 9.66796875 11.35546875 8.1875 9.1875 C5.77758705 5.83020113 3.68896421 3.95298105 0 2 C0 1.34 0 0.68 0 0 Z " fill="#EFF4F8" transform="translate(377,380)"/>
<path d="M0 0 C3.83078469 1.56069006 6.14143762 4.06814114 9 7 C9.99 7.66 10.98 8.32 12 9 C12 9.66 12 10.32 12 11 C6.41133327 9.6451717 3.34726118 5.38906005 0 1 C0 0.67 0 0.34 0 0 Z " fill="#F0F5F8" transform="translate(692,574)"/>
<path d="M0 0 C4.5076467 0.53031138 7.41954788 2.25221116 11 5 C11 5.66 11 6.32 11 7 C6.89188572 5.55007731 3.53144334 3.54592427 0 1 C0 0.67 0 0.34 0 0 Z " fill="#EEF4F8" transform="translate(418,334)"/>
<path d="M0 0 C0.66 0 1.32 0 2 0 C0.66666667 3.33333333 -0.66666667 6.66666667 -2 10 C-2.66 10 -3.32 10 -4 10 C-3.52449439 8.51965236 -3.04448784 7.04074979 -2.5625 5.5625 C-2.29566406 4.73878906 -2.02882813 3.91507812 -1.75390625 3.06640625 C-1 1 -1 1 0 0 Z " fill="#DFEAF1" transform="translate(500,353)"/>
<path d="M0 0 C0.99 0 1.98 0 3 0 C4.85776765 3.13498292 5.20140476 5.37471432 5 9 C2.67527795 6.14693203 1.2491742 3.45925163 0 0 Z " fill="#E2EBF3" transform="translate(441,356)"/>
</svg>
